<?xml version="1.0" encoding="utf-8"?>
<!-- Generator: Adobe Illustrator 24.0.0, SVG Export Plug-In . SVG Version: 6.00 Build 0)  -->
<svg version="1.1" id="Layer_1" xmlns="http://www.w3.org/2000/svg" xmlns:xlink="http://www.w3.org/1999/xlink" x="0px" y="0px"
	 viewBox="0 0 256 256" enable-background="new 0 0 256 256" xml:space="preserve">
<g>
</g>
<g>
	<path fill="#F0C020" d="M171.877,104.181L171.877,104.181c2.785,0,5.043-2.258,5.043-5.043V85.284h-10.087v13.853
		C166.833,101.923,169.091,104.181,171.877,104.181z"/>
	<path fill="#F0C020" d="M84.123,104.181L84.123,104.181c2.785,0,5.043-2.258,5.043-5.043V85.284H79.08v13.853
		C79.08,101.923,81.338,104.181,84.123,104.181z"/>
	<path fill="#F0C020" d="M56.751,157.204L56.751,157.204c2.785,0,5.043-2.258,5.043-5.043v-13.853H51.708v13.853
		C51.708,154.946,53.966,157.204,56.751,157.204z"/>
	<path fill="#F0C020" d="M199.249,157.204L199.249,157.204c2.785,0,5.043-2.258,5.043-5.043v-13.853h-10.087v13.853
		C194.206,154.946,196.464,157.204,199.249,157.204z"/>
	<path d="M121.94,43.77c1.342,0.271,2.657-0.633,2.91-1.99c0.269-1.36-0.639-2.67-1.99-2.92c-1.34-0.26-2.67,0.66-2.92,1.99
		C119.69,42.21,120.58,43.52,121.94,43.77z"/>
	<path d="M170.63,122.069c-0.606,1.214-0.086,2.739,1.16,3.341c1.326,0.621,2.762,0.027,3.34-1.17
		c0.592-1.225,0.109-2.711-1.17-3.33C172.76,120.319,171.2,120.87,170.63,122.069z"/>
	<path d="M107.71,197.16c1.167-0.718,1.55-2.251,0.82-3.44c-0.747-1.219-2.292-1.518-3.43-0.82c-1.203,0.74-1.539,2.275-0.83,3.431
		C105.01,197.537,106.553,197.87,107.71,197.16z"/>
	<path d="M248.16,104.18c0-1.38-1.12-2.5-2.49-2.5h-66.701c0.287-0.795,0.451-1.648,0.451-2.54V85.29c0-0.94-0.538-1.794-1.32-2.21
		l-37.908-20.21l-9.741-51.83c-0.505-2.699-4.381-2.715-4.91,0l-3.75,19.989c-0.269,1.344,0.635,2.664,1.99,2.91
		c1.34,0.261,2.67-0.66,2.92-1.989l1.3-6.921l6.948,36.98h-13.892l1.954-10.4c0.25-1.359-0.64-2.67-2-2.92
		c-1.34-0.25-2.66,0.65-2.91,1.98l-0.01,0.01l-2.291,12.195L77.9,83.08c-0.835,0.449-1.32,1.316-1.32,2.21v13.85
		c0,0.892,0.165,1.745,0.452,2.54H10.33c-1.37,0-2.5,1.12-2.5,2.5s1.13,2.5,2.5,2.5h73.79c4.16,0,7.54-3.39,7.55-7.54V87.79h19.449
		l-3.952,21.035c-0.099,0.034-0.201,0.059-0.297,0.104l-56.25,27.13c-0.899,0.433-1.41,1.376-1.41,2.25v13.851
		c0,0.893,0.164,1.745,0.449,2.54H10.33c-1.37,0-2.5,1.13-2.5,2.5c0,1.38,1.13,2.5,2.5,2.5h46.42c4.16,0,7.54-3.381,7.54-7.54
		V140.81h36.868l-4.277,22.767c-0.08,0.3-15.636,44.527-15.714,44.864c-0.062,0.27-4.264,34.535-4.298,34.81H50.33
		c-1.37,0-2.5,1.12-2.5,2.5s1.13,2.5,2.5,2.5h155.34c1.38,0,2.5-1.12,2.5-2.5s-1.12-2.5-2.5-2.5h-26.541
		c-0.815-6.625-4.168-34.211-4.369-35.08c-0.064-0.183-15.592-44.406-15.642-44.594l-4.279-22.766h36.871v11.351
		c0,4.159,3.38,7.54,7.54,7.54h46.42c1.37,0,2.49-1.12,2.49-2.5c0-1.37-1.12-2.5-2.49-2.5h-39.329
		c0.286-0.795,0.449-1.647,0.449-2.54c0-0.366,0.003-13.541-0.005-13.906c-0.016-0.981-0.591-1.805-1.405-2.194l-22.41-10.81
		c-1.21-0.59-2.76-0.03-3.34,1.17c-0.611,1.263-0.056,2.748,1.17,3.33l12.55,6.06h-39.45l-3.933-20.926l12.814,6.176
		c1.21,0.59,2.77,0.04,3.34-1.16c0.606-1.253,0.067-2.746-1.16-3.34c-0.01,0-0.01,0-0.01,0c-0.389-0.188-15.713-7.6-16.123-7.736
		l-3.953-21.033h19.455v11.35c0,4.15,3.39,7.54,7.55,7.54c15.345,0,67.065,0,73.79,0C247.04,106.68,248.16,105.56,248.16,104.18z
		 M56.75,154.7c-1.4,0-2.54-1.141-2.54-2.54V140.81h5.08l0.01,11.351C59.29,153.56,58.15,154.7,56.75,154.7z M196.71,140.81h5.08
		v11.351c0,1.399-1.141,2.54-2.54,2.54c-1.4,0-2.54-1.141-2.54-2.54V140.81z M136.311,69.267l1.765,9.397l-6.273-5.467
		L136.311,69.267z M135.182,82.779h-14.367l7.182-6.263L135.182,82.779z M131.294,67.01L128,69.881l-3.295-2.872H131.294z
		 M119.69,69.276l4.502,3.924l-6.265,5.46L119.69,69.276z M116.211,87.79h23.58l3.925,20.89h-31.43L116.211,87.79z M116.971,113.68
		h22.058L128,120.299L116.971,113.68z M144.13,135.81h-32.261l16.13-9.684L144.13,135.81z M86.67,99.14
		c-0.01,1.4-1.15,2.54-2.55,2.54c-1.4,0-2.54-1.14-2.54-2.54V87.79h5.09V99.14z M89.08,82.779l25.538-13.614l-2.558,13.614H89.08z
		 M110.933,115.879l12.213,7.333l-15.318,9.193L110.933,115.879z M62.64,135.81l43.389-20.924l-3.931,20.924H62.64z
		 M100.648,167.965l22.564,13.827l-9.593,5.878c-1.17,0.72-1.54,2.26-0.82,3.439c0.74,1.233,2.331,1.507,3.43,0.83l11.771-7.213
		l35.533,21.774H92.469l6.711-4.11c1.185-0.727,1.552-2.266,0.83-3.439c-0.739-1.205-2.282-1.543-3.44-0.83l-8.28,5.073
		L100.648,167.965z M108.303,166.79h39.392l-19.697,12.069L108.303,166.79z M85.814,211.5h21.177L82.52,238.279L85.814,211.5z
		 M84.759,243.25l29.02-31.75h28.442l29.019,31.75H84.759z M173.479,238.279L149,211.5h21.187L173.479,238.279z M155.372,167.953
		l12.347,35.246l-34.932-21.406L155.372,167.953z M149.752,140.81l3.942,20.98h-51.388l3.942-20.98H149.752z M145.068,115.878
		l3.105,16.527l-15.32-9.194L145.068,115.878z M143.933,82.779l-2.559-13.614l25.546,13.614H143.933z M174.42,99.14
		c0,1.4-1.14,2.54-2.54,2.54s-2.54-1.14-2.55-2.54V87.79h5.09V99.14z"/>
</g>
</svg>
