<?xml version="1.0" encoding="utf-8"?>
<!-- Generator: Adobe Illustrator 24.0.0, SVG Export Plug-In . SVG Version: 6.00 Build 0)  -->
<svg version="1.1" id="Layer_1" xmlns="http://www.w3.org/2000/svg" xmlns:xlink="http://www.w3.org/1999/xlink" x="0px" y="0px"
	 viewBox="0 0 256 256" enable-background="new 0 0 256 256" xml:space="preserve">
<g>
</g>
<g>
	<path fill="#72C2E9" d="M237.28,242H18.72c-6.48,0-11.25-6.07-9.71-12.36l27.26-112c1.09-4.49,5.1-7.64,9.71-7.64h35.98l-0.97,7.53
		l29.08-3.73L128,137l17.93-23.2l29.08,3.73l-0.97-7.53h35.98c4.61,0,8.62,3.15,9.71,7.64l27.26,112
		C248.53,235.93,243.76,242,237.28,242z"/>
	<path fill="#4BA4C7" d="M110.07,113.8l8.66,11.2h-8.85l-2.9-3.75l-25.1,3.22c-4.54,0.58-8.42-3.29-7.83-7.84
		c0.46-3.59,0.65-5.06,0.85-6.63h7.06l-0.97,7.53L110.07,113.8z"/>
	<path fill="#4BA4C7" d="M174.12,124.47l-25.1-3.22l-2.9,3.75h-8.85l8.66-11.2l29.08,3.73l-0.97-7.53h7.06
		c0.2,1.58,0.39,3.04,0.85,6.63C182.54,121.18,178.67,125.05,174.12,124.47z"/>
	<path fill="#AEAEAE" d="M224.55,227H31.45c-3.24,0-5.63-3.03-4.86-6.18l22.39-92c0.55-2.24,2.55-3.82,4.86-3.82h64.89l9.27,12
		l9.27-12h64.89c2.31,0,4.31,1.58,4.86,3.82l22.39,92C230.18,223.97,227.79,227,224.55,227z"/>
	<path fill="#868686" d="M146.12,125l-12.58,16.28c-2.8,3.62-8.28,3.63-11.08,0L109.88,125h8.85l9.27,12l9.27-12H146.12z"/>
	<polygon fill="#F0C020" points="174.04,110 175.01,117.53 145.93,113.8 137.27,125 128,137 118.73,125 110.07,113.8 80.99,117.53 
		81.96,110 84.72,88.45 61.52,70.52 84.72,52.59 80.99,23.51 110.07,27.24 128,4.04 145.93,27.24 175.01,23.51 171.28,52.59 
		194.48,70.52 171.28,88.45 	"/>
	<circle fill="#FC5D3D" cx="128" cy="70.518" r="30.789"/>
	<path fill="#EEEEEE" d="M218.188,219.5H50.812c-1.381,0-2.5-1.119-2.5-2.5s1.119-2.5,2.5-2.5h164.195l-19.204-78.909
		c-0.327-1.341,0.496-2.693,1.838-3.02c1.341-0.334,2.694,0.495,3.02,1.838l19.957,82C221,217.979,219.81,219.5,218.188,219.5z
		 M40.812,219.5h-3c-1.381,0-2.5-1.119-2.5-2.5s1.119-2.5,2.5-2.5h3c1.381,0,2.5,1.119,2.5,2.5S42.192,219.5,40.812,219.5z"/>
	<path fill="#FFCAC2" d="M126.29,91.414c-1.376-0.112-2.4-1.319-2.288-2.695c0.113-1.376,1.316-2.406,2.695-2.287
		c14.96,1.217,22.938-16.871,12.598-27.208c-0.977-0.976-0.977-2.559,0-3.535c0.975-0.977,2.559-0.977,3.535,0
		C156.478,69.333,145.849,93.02,126.29,91.414z M115.759,87.552c-0.916-0.66-1.787-1.401-2.589-2.203
		c-0.977-0.977-0.977-2.559,0-3.535c0.976-0.977,2.56-0.977,3.535,0c0.612,0.612,1.277,1.178,1.977,1.682
		c1.12,0.807,1.374,2.369,0.567,3.489C118.443,88.104,116.881,88.359,115.759,87.552z"/>
	<path d="M128,103.81c18.323,0,33.29-14.817,33.29-33.29c0-25.357-27.126-41.137-49.01-29.35c-1.168,0.613-1.702,2.123-1.02,3.38
		c0.655,1.248,2.217,1.667,3.38,1.02c18.924-10.102,41.609,3.783,41.65,24.95c-0.03,15.57-12.721,28.26-28.29,28.29
		c-15.57-0.03-28.26-12.72-28.29-28.29c0-4.109,0.86-8.08,2.56-11.79c0.58-1.25,0.03-2.739-1.22-3.31
		c-1.23-0.57-2.76,0.01-3.32,1.229c-2,4.36-3.02,9.03-3.02,13.87C94.71,88.993,109.677,103.81,128,103.81z"/>
	<path d="M107.39,51.149c0.94-1.01,0.89-2.6-0.11-3.54c-0.98-0.92-2.62-0.869-3.54,0.11c-0.94,1-0.89,2.59,0.11,3.53
		C104.898,52.229,106.487,52.11,107.39,51.149z"/>
	<path d="M227.319,148.83c-1.345,0.332-2.151,1.668-1.84,3.02c0.352,1.417,1.788,2.168,3.021,1.84c1.34-0.33,2.17-1.68,1.84-3.02
		C230.02,149.35,228.649,148.51,227.319,148.83z"/>
	<path d="M232.7,160.38c-0.32-1.311-1.69-2.16-3.011-1.83c-1.323,0.326-2.178,1.648-1.84,3.02l16.71,68.66
		c1.185,4.648-2.393,9.259-7.279,9.271H18.72c-4.855-0.012-8.451-4.577-7.28-9.271l27.26-112c0.82-3.37,3.81-5.729,7.28-5.729
		h33.135l-0.604,4.71c-0.21,1.628,1.188,3.014,2.797,2.799l27.66-3.547l4.666,6.038H53.84c-3.47,0-6.46,2.35-7.29,5.72
		l-7.426,30.515c-0.001,0.005-0.003,0.011-0.004,0.017c-16.187,66.517-15.17,61.923-15.17,63.268c0,4.11,3.36,7.471,7.5,7.48h38.39
		c1.38,0,2.5-1.12,2.5-2.5s-1.12-2.5-2.5-2.5h-9.958l4.27-29.25h39.22l-1.422,29.25H89.84c-1.38,0-2.5,1.12-2.5,2.5
		s1.12,2.5,2.5,2.5h134.71c4.809-0.011,8.439-4.499,7.29-9.271c-2.177-8.945-20.234-83.144-22.39-92
		c-0.83-3.37-3.83-5.729-7.29-5.729h-59.795l4.666-6.038l27.66,3.547c1.632,0.205,3.006-1.18,2.798-2.799l-0.604-4.71h33.134
		c3.471,0,6.46,2.359,7.28,5.729l5.82,23.91c0.33,1.37,1.714,2.155,3.02,1.83c1.34-0.32,2.16-1.68,1.84-3.02l-5.819-23.9
		c-1.37-5.62-6.36-9.55-12.141-9.55h-33.776l-2.302-17.947l22.067-17.055c1.296-1.001,1.293-2.958,0-3.957l-22.066-17.054
		l3.547-27.659c0.207-1.614-1.161-3.003-2.798-2.798l-27.659,3.548L129.979,2.512c-1.002-1.298-2.96-1.291-3.957,0l-17.055,22.066
		L81.308,21.03c-1.603-0.208-3.008,1.16-2.797,2.798l3.547,27.659L59.991,68.541c-1.293,1-1.295,2.956,0,3.957l22.067,17.055
		L79.756,107.5H45.97c-5.77,0-10.76,3.93-12.13,9.55l-27.26,112c-1.932,7.892,4.086,15.439,12.14,15.45H237.28
		c8.07-0.012,14.08-7.619,12.14-15.45L232.7,160.38z M54.829,224.5H31.45c-1.626,0-2.837-1.546-2.43-3.08l6.368-26.17h23.71
		L54.829,224.5z M59.828,190.25H36.605l6.935-28.5h20.449L59.828,190.25z M44.757,156.75l6.653-27.34c0.28-1.12,1.28-1.91,2.43-1.91
		h15.149l-4.27,29.25H44.757z M103.614,190.25H64.881l4.16-28.5H105L103.614,190.25z M105.243,156.75H69.771l4.27-29.25h32.624
		L105.243,156.75z M154.051,224.5l-1.425-29.25h39.22l4.273,29.25H154.051z M226.979,221.41c0.399,1.649-0.874,3.09-2.43,3.09
		h-23.379l-4.273-29.25h23.715L226.979,221.41z M219.396,190.25h-23.228l-4.163-28.5h20.455L219.396,190.25z M202.16,127.5
		c1.149,0,2.149,0.79,2.43,1.91l6.654,27.34h-19.969l-4.273-29.25H202.16z M191.115,190.25h-38.733l-1.389-28.5h35.958
		L191.115,190.25z M181.949,127.5l4.273,29.25H150.75l-1.425-29.25H181.949z M149.045,224.5h-42.091l1.422-29.25h39.243
		L149.045,224.5z M147.376,190.25H108.62l1.386-28.5h35.982L147.376,190.25z M144.319,127.5l1.425,29.25h-35.495l1.422-29.25h5.827
		l8.523,11.028c1.001,1.296,2.958,1.293,3.957,0l8.523-11.028H144.319z M65.608,70.52l20.64-15.951
		c0.702-0.543,1.063-1.417,0.951-2.297l-3.318-25.87l25.871,3.318c0.876,0.11,1.753-0.248,2.296-0.951L128,8.128l15.951,20.641
		c0.543,0.702,1.415,1.066,2.297,0.951l25.87-3.318l-3.317,25.87c-0.113,0.88,0.249,1.754,0.951,2.297l20.641,15.951l-20.641,15.952
		c-0.702,0.543-1.064,1.416-0.951,2.296c3.358,26.22,2.575,20.118,3.316,25.87l-25.869-3.317c-0.882-0.113-1.754,0.25-2.296,0.95
		L128,132.91l-15.953-20.64c-0.477-0.617-1.209-0.971-1.977-0.971c-0.106,0-0.212,0.007-0.318,0.021l-25.869,3.317l3.316-25.87
		c0.112-0.88-0.25-1.753-0.951-2.296L65.608,70.52z"/>
	<circle cx="79.84" cy="227" r="2.5"/>
</g>
</svg>
