<?xml version="1.0" encoding="utf-8"?>
<!-- Generator: Adobe Illustrator 24.0.0, SVG Export Plug-In . SVG Version: 6.00 Build 0)  -->
<svg version="1.1" id="Layer_1" xmlns="http://www.w3.org/2000/svg" xmlns:xlink="http://www.w3.org/1999/xlink" x="0px" y="0px"
	 viewBox="0 0 256 256" enable-background="new 0 0 256 256" xml:space="preserve">
<g>
</g>
<g>
	<path fill="#F0C020" d="M183.471,249.75H72.529c-5.523,0-10-4.477-10-10v-198c0-5.523,4.477-10,10-10h110.942
		c5.523,0,10,4.477,10,10v198C193.471,245.273,188.994,249.75,183.471,249.75z"/>
	<rect x="62.529" y="74.25" fill="#72C2E9" width="130.942" height="133"/>
	<path fill="#F0C020" d="M151.495,136.151l-31.579,46.519c-1.792,2.639-5.884,0.69-5.006-2.352l9.673-33.444h-17.757
		c-1.871,0-3.214-1.798-2.691-3.59l12.009-41.084c0.34-1.181,1.448-2.012,2.686-2.012h17.95c1.876,0,3.209,1.792,2.691,3.574
		l-8.053,28.015h17.757C151.427,131.778,152.749,134.296,151.495,136.151z"/>
	<path fill="#EFEFEF" d="M154,11.25v20.5h-52v-20.5c0-2.76,2.24-5,5-5h42C151.76,6.25,154,8.49,154,11.25z"/>
	<rect x="102" y="24.75" fill="#AFAFAF" width="52" height="7"/>
	<path fill="#F8E5B0" d="M183.47,76.75c-1.381,0-2.5-1.119-2.5-2.5v-19.5c0-1.381,1.119-2.5,2.5-2.5s2.5,1.119,2.5,2.5v19.5
		C185.97,75.631,184.851,76.75,183.47,76.75z M183.47,47.25c-1.381,0-2.5-1.119-2.5-2.5v-3c0-1.381,1.119-2.5,2.5-2.5
		s2.5,1.119,2.5,2.5v3C185.97,46.131,184.851,47.25,183.47,47.25z"/>
	<path fill="#F8E5B0" d="M183.47,242.25H85.53c-1.381,0-2.5-1.119-2.5-2.5s1.119-2.5,2.5-2.5h95.44v-30c0-1.381,1.119-2.5,2.5-2.5
		s2.5,1.119,2.5,2.5v32.5C185.97,241.131,184.851,242.25,183.47,242.25z M75.53,242.25h-3c-1.381,0-2.5-1.119-2.5-2.5
		s1.119-2.5,2.5-2.5h3c1.381,0,2.5,1.119,2.5,2.5S76.911,242.25,75.53,242.25z"/>
	<path fill="#C5E5FE" d="M183.47,209.75c-1.381,0-2.5-1.119-2.5-2.5v-9c0-1.381,1.119-2.5,2.5-2.5s2.5,1.119,2.5,2.5v9
		C185.97,208.631,184.851,209.75,183.47,209.75z M183.47,190.75c-1.381,0-2.5-1.119-2.5-2.5v-114c0-1.381,1.119-2.5,2.5-2.5
		s2.5,1.119,2.5,2.5v114C185.97,189.631,184.851,190.75,183.47,190.75z"/>
	<path d="M136.779,97.688h-17.95c-2.35,0-4.442,1.571-5.085,3.811l-12.009,41.085c-0.99,3.394,1.55,6.79,5.091,6.79h14.431
		l-8.749,30.25c-1.672,5.791,6.103,9.416,9.477,4.449l31.579-46.519c0.001-0.001,0.002-0.003,0.003-0.004
		c2.377-3.515-0.146-8.274-4.392-8.274h-14.437l7.134-24.817C142.855,101.072,140.319,97.688,136.779,97.688z M137.068,103.072
		l-8.053,28.015c-0.458,1.595,0.74,3.19,2.403,3.19h17.757c0.25,0,0.383,0.276,0.252,0.47l-31.578,46.518
		c-0.196,0.289-0.633,0.081-0.537-0.252l9.673-33.444c0.463-1.599-0.74-3.195-2.401-3.195h-17.757c-0.208,0-0.347-0.199-0.292-0.389
		l12.012-41.095c0.031-0.109,0.161-0.202,0.283-0.202h17.95c0.038,0,0.154,0,0.243,0.119
		C137.081,102.885,137.097,102.972,137.068,103.072z"/>
	<path d="M136,49.5h-5.5V44c0-1.381-1.119-2.5-2.5-2.5s-2.5,1.119-2.5,2.5v5.5H120c-1.381,0-2.5,1.119-2.5,2.5s1.119,2.5,2.5,2.5
		h5.5V60c0,1.381,1.119,2.5,2.5,2.5s2.5-1.119,2.5-2.5v-5.5h5.5c1.381,0,2.5-1.119,2.5-2.5S137.381,49.5,136,49.5z"/>
	<path d="M119.764,226c-1.381,0-2.5,1.119-2.5,2.5s1.119,2.5,2.5,2.5h16c1.381,0,2.5-1.119,2.5-2.5s-1.119-2.5-2.5-2.5H119.764z"/>
	<path d="M60.03,239.75c0,6.89,5.61,12.5,12.5,12.5h110.94c6.909,0,12.5-5.588,12.5-12.5c0-9.134,0-188.911,0-198
		c0-6.89-5.61-12.5-12.5-12.5H156.5v-18c0-4.13-3.37-7.5-7.5-7.5h-2.86c-1.37,0-2.5,1.12-2.5,2.5c0,1.38,1.13,2.5,2.5,2.5H149
		c1.38,0,2.5,1.12,2.5,2.5v18h-47v-18c0-1.38,1.12-2.5,2.5-2.5h19.14c1.38,0,2.5-1.12,2.5-2.5c0-1.38-1.12-2.5-2.5-2.5H107
		c-4.13,0-7.5,3.37-7.5,7.5v18H72.53c-6.89,0-12.5,5.61-12.5,12.5c0,10.266,0,94.609,0,104.66c0,1.38,1.12,2.5,2.5,2.5
		s2.5-1.12,2.5-2.5V76.75h125.94v128h-17.5c-1.38,0-2.5,1.12-2.5,2.5c0,1.38,1.12,2.5,2.5,2.5h17.5v30
		c0.011,4.061-3.292,7.5-7.5,7.5H72.53c-4.13-0.01-7.49-3.37-7.5-7.5v-30h88.44c1.38,0,2.5-1.12,2.5-2.5c0-1.38-1.12-2.5-2.5-2.5
		H65.03v-38.34c0-1.38-1.12-2.5-2.5-2.5s-2.5,1.12-2.5,2.5V239.75z M65.03,71.75v-30c0.01-4.13,3.37-7.49,7.5-7.5
		c12.536,0,98.382,0,110.94,0c4.13,0.01,7.49,3.37,7.5,7.5v30H65.03z"/>
	<circle cx="62.53" cy="156.41" r="2.5"/>
	<circle cx="163.47" cy="207.25" r="2.5"/>
	<circle cx="136.14" cy="6.25" r="2.5"/>
</g>
</svg>
