<?xml version="1.0" encoding="utf-8"?>
<!-- Generator: Adobe Illustrator 24.0.0, SVG Export Plug-In . SVG Version: 6.00 Build 0)  -->
<svg version="1.1" id="Layer_1" xmlns="http://www.w3.org/2000/svg" xmlns:xlink="http://www.w3.org/1999/xlink" x="0px" y="0px"
	 viewBox="0 0 256 256" enable-background="new 0 0 256 256" xml:space="preserve">
<g>
</g>
<g>
	<path fill="#FB5C3C" d="M14.9,132.531l32.372-87.266c0.71-1.913,2.535-3.183,4.576-3.183h152.304c2.041,0,3.866,1.27,4.576,3.183
		l32.372,87.266c1.183,3.188-1.176,6.578-4.576,6.578H19.476C16.076,139.109,13.718,135.719,14.9,132.531z"/>
	<polygon fill="#878787" points="187.204,58.438 68.796,58.438 52.503,116.939 203.497,116.939 	"/>
	<path fill="#EEEEEE" d="M231.774,139.109v108.389c0,2.842-2.304,5.146-5.146,5.146H29.372c-2.842,0-5.146-2.304-5.146-5.146
		V139.109H231.774z"/>
	<rect x="24.226" y="139.109" fill="#AEAEAE" width="207.548" height="7.262"/>
	<path fill="#EFBF27" d="M157.282,252.643H98.718v-82.977c0-2.761,2.239-5,5-5h48.563c2.761,0,5,2.239,5,5V252.643z"/>
	<path fill="#72C2E9" d="M74.783,219.724H48.329c-2.761,0-5-2.239-5-5v-45.057c0-2.761,2.239-5,5-5h26.453c2.761,0,5,2.239,5,5
		v45.057C79.783,217.486,77.544,219.724,74.783,219.724z"/>
	<path fill="#72C2E9" d="M207.671,219.724h-26.453c-2.761,0-5-2.239-5-5v-45.057c0-2.761,2.239-5,5-5h26.453c2.761,0,5,2.239,5,5
		v45.057C212.671,217.486,210.432,219.724,207.671,219.724z"/>
	<path fill="#F0C020" d="M138.961,18.353c-3.961-1.309-8.051-2.453-10.348-12.345c-2.115,9.112-5.504,10.745-10.348,12.345
		c7.9,2.61,9.092,6.933,10.348,12.345C130.778,21.369,134.359,19.874,138.961,18.353z"/>
	<path d="M126.022,31.3c-1.147-4.945-1.905-8.212-8.591-10.421c-2.43-0.803-2.424-4.25,0-5.051c4.025-1.33,6.684-2.209,8.591-10.422
		c0.633-2.73,4.546-2.737,5.181,0c1.95,8.399,4.863,9.193,8.591,10.421c2.43,0.803,2.424,4.25,0,5.051
		c-3.881,1.282-6.686,2.209-8.591,10.421C130.567,34.042,126.659,34.043,126.022,31.3z M124.502,18.414
		c1.914,1.314,3.222,2.815,4.164,4.403c1.141-2.017,2.462-3.405,3.934-4.439c-1.411-1.01-2.778-2.44-3.977-4.601
		C127.437,15.911,126.051,17.352,124.502,18.414z"/>
	<path fill="#FFCAC2" d="M229.509,131.848H41.492c-1.381,0-2.5-1.119-2.5-2.5s1.119-2.5,2.5-2.5h184.423l-27.502-74.135
		c-0.48-1.294,0.18-2.733,1.475-3.213c1.292-0.48,2.732,0.179,3.213,1.474l28.752,77.505
		C232.458,130.109,231.25,131.848,229.509,131.848z M31.492,131.848h-5c-1.381,0-2.5-1.119-2.5-2.5s1.119-2.5,2.5-2.5h5
		c1.381,0,2.5,1.119,2.5,2.5S32.873,131.848,31.492,131.848z"/>
	<path fill="#FFFFFF" d="M190.646,109.678H78.354c-1.381,0-2.5-1.119-2.5-2.5s1.119-2.5,2.5-2.5h109.001l-9.973-35.808
		c-0.37-1.33,0.407-2.709,1.737-3.079c1.333-0.372,2.709,0.408,3.079,1.737l10.855,38.979
		C193.499,108.103,192.294,109.678,190.646,109.678z M68.354,109.678h-3c-1.381,0-2.5-1.119-2.5-2.5s1.119-2.5,2.5-2.5h3
		c1.381,0,2.5,1.119,2.5,2.5S69.734,109.678,68.354,109.678z"/>
	<path fill="#C5E5FE" d="M70.022,212.464H66.09c-1.381,0-2.5-1.119-2.5-2.5s1.119-2.5,2.5-2.5h1.432v-33.036
		c0-1.381,1.119-2.5,2.5-2.5s2.5,1.119,2.5,2.5v35.536C72.522,211.345,71.403,212.464,70.022,212.464z M56.09,212.464h-3
		c-1.381,0-2.5-1.119-2.5-2.5s1.119-2.5,2.5-2.5h3c1.381,0,2.5,1.119,2.5,2.5S57.471,212.464,56.09,212.464z"/>
	<path fill="#C5E5FE" d="M202.91,212.464h-3.933c-1.381,0-2.5-1.119-2.5-2.5s1.119-2.5,2.5-2.5h1.433v-33.036
		c0-1.381,1.119-2.5,2.5-2.5s2.5,1.119,2.5,2.5v35.536C205.41,211.345,204.291,212.464,202.91,212.464z M188.978,212.464h-3
		c-1.381,0-2.5-1.119-2.5-2.5s1.119-2.5,2.5-2.5h3c1.381,0,2.5,1.119,2.5,2.5S190.358,212.464,188.978,212.464z"/>
	<path d="M74.78,222.22c4.14,0,7.5-3.36,7.5-7.49v-45.06c0-4.14-3.36-7.5-7.5-7.5H48.33c-4.14,0-7.5,3.36-7.5,7.5v45.06
		c0,4.13,3.36,7.49,7.5,7.49H74.78z M45.83,214.73v-45.06c0-1.38,1.12-2.5,2.5-2.5h26.45c1.38,0,2.5,1.12,2.5,2.5v45.06
		c0,1.37-1.12,2.49-2.5,2.49H48.33C46.95,217.22,45.83,216.1,45.83,214.73z"/>
	<path d="M207.67,222.22c4.13,0,7.5-3.36,7.5-7.5v-45.05c0-4.14-3.37-7.5-7.5-7.5h-26.45c-4.14,0-7.5,3.36-7.5,7.5v45.05
		c0,4.14,3.36,7.5,7.5,7.5H207.67z M178.72,214.72v-45.05c0-1.38,1.12-2.5,2.5-2.5h26.45c1.38,0,2.5,1.12,2.5,2.5v45.05
		c0,1.38-1.12,2.5-2.5,2.5h-26.45C179.84,217.22,178.72,216.1,178.72,214.72z"/>
	<circle cx="157.28" cy="223.85" r="2.5"/>
	<path d="M229.68,101.76c-1.29,0.47-1.95,1.92-1.47,3.21c0.495,1.349,2.006,1.942,3.21,1.47c1.29-0.48,1.96-1.92,1.479-3.21
		C232.43,101.98,230.95,101.29,229.68,101.76z"/>
	<path d="M24.23,211.81c1.37,0,2.5-1.12,2.5-2.49c0-1.38-1.13-2.5-2.5-2.5c-1.38,0-2.5,1.12-2.5,2.5
		C21.73,210.69,22.85,211.81,24.23,211.81z"/>
	<path d="M234.27,247.5V141.61h2.25c5.031-0.025,8.741-5.021,6.92-9.95l-7.069-19.05c-0.46-1.26-1.95-1.95-3.21-1.48
		c-1.258,0.459-1.971,1.902-1.471,3.22l7.07,19.05c0.584,1.64-0.657,3.21-2.24,3.21c-10.879,0-206.194,0-217.04,0
		c-1.625,0-2.823-1.628-2.24-3.2l32.38-87.28c0.34-0.92,1.24-1.55,2.23-1.55h152.3c0.99,0,1.891,0.63,2.23,1.55l18.35,49.46
		c0.46,1.26,1.94,1.95,3.21,1.48c1.285-0.469,1.966-1.885,1.48-3.22L211.069,44.4c-1.069-2.88-3.85-4.82-6.92-4.82H51.85
		c-3.07,0-5.85,1.94-6.92,4.82l-32.37,87.26c-1.804,4.773,1.77,9.925,6.92,9.95h2.25v57.71c0,1.37,1.12,2.5,2.5,2.5
		c1.37,0,2.5-1.13,2.5-2.5c0-0.01,0-0.01,0-0.02v-57.69h202.54V247.5c0,1.45-1.189,2.64-2.64,2.64h-66.85v-16.29
		c0-1.38-1.12-2.5-2.5-2.5c-1.381,0-2.5,1.12-2.5,2.5v16.29H101.22v-80.47c0-1.38,1.12-2.5,2.5-2.5h48.561c1.38,0,2.5,1.12,2.5,2.5
		v44.18c0,1.38,1.119,2.5,2.5,2.5c1.38,0,2.5-1.12,2.5-2.5v-44.18c0-4.14-3.36-7.5-7.5-7.5H103.72c-4.14,0-7.5,3.36-7.5,7.5v80.47
		H29.37c-1.45,0-2.64-1.19-2.64-2.64v-28.18c0-1.38-1.13-2.5-2.5-2.5c-1.38,0-2.5,1.12-2.5,2.5v28.18c0,4.21,3.43,7.64,7.64,7.64
		c8.799,0,182.085,0,197.26,0C230.84,255.14,234.27,251.71,234.27,247.5z"/>
	<path d="M187.204,55.938H68.796c-1.123,0-2.107,0.748-2.408,1.829l-16.292,58.5c-0.444,1.592,0.756,3.171,2.408,3.171
		c7.221,0,144.992,0,150.994,0c1.651,0,2.853-1.577,2.408-3.171l-16.293-58.5C189.312,56.687,188.326,55.938,187.204,55.938z
		 M185.306,60.938l3.734,13.406h-20.324l-2.24-13.406H185.306z M118.524,60.938h18.952l0.747,13.406h-20.446L118.524,60.938z
		 M117.499,79.344h21.003l0.662,11.88h-22.326L117.499,79.344z M70.695,60.938h18.83l-2.24,13.406H66.961L70.695,60.938z
		 M80.585,114.438h-24.79l5.073-18.214h22.761L80.585,114.438z M62.26,91.225l3.309-11.88h20.881l-1.985,11.88H62.26z
		 M110.536,114.438H85.655l3.044-18.214h22.853L110.536,114.438z M111.829,91.225H89.534l1.985-11.88h20.972L111.829,91.225z
		 M112.769,74.344H92.354l2.24-13.406h18.922L112.769,74.344z M115.544,114.438l1.014-18.214h22.883l1.015,18.214H115.544z
		 M142.484,60.938h18.922l2.24,13.406h-20.415L142.484,60.938z M143.509,79.344h20.972l1.985,11.88h-22.295L143.509,79.344z
		 M145.464,114.438l-1.015-18.214h22.852l3.044,18.214H145.464z M200.206,114.438h-24.791l-3.044-18.214h22.762L200.206,114.438z
		 M193.741,91.225h-22.205l-1.985-11.88h20.881L193.741,91.225z"/>
	<path d="M110.43,210.39c-1.38,0-2.5,1.12-2.5,2.5c0,1.38,1.12,2.5,2.5,2.5h7.32c1.38,0,2.5-1.12,2.5-2.5c0-1.38-1.12-2.5-2.5-2.5
		H110.43z"/>
</g>
</svg>
