<?xml version="1.0" encoding="iso-8859-1"?>
<!-- Generator: Adobe Illustrator 19.0.0, SVG Export Plug-In . SVG Version: 6.00 Build 0)  -->
<svg xmlns="http://www.w3.org/2000/svg" xmlns:xlink="http://www.w3.org/1999/xlink" version="1.1" id="Layer_1" x="0px" y="0px" viewBox="0 0 512 512" style="enable-background:new 0 0 512 512;" xml:space="preserve">
<path style="fill:#D5DCED;" d="M478.33,341.511h-42.756V170.488h42.756c14.168,0,25.653,11.485,25.653,25.653v119.716  C503.983,330.026,492.498,341.511,478.33,341.511z"/>
<path style="fill:#C7CFE2;" d="M486.881,290.204h-51.307v51.307h42.756c14.168,0,25.653-11.485,25.653-25.653v-42.756  C503.983,282.547,496.326,290.204,486.881,290.204z"/>
<path style="fill:#E4EAF8;" d="M418.472,401.369H42.221c-18.891,0-34.205-15.314-34.205-34.205v-222.33  c0-18.891,15.314-34.205,34.205-34.205h376.251c18.891,0,34.205,15.314,34.205,34.205v222.33  C452.676,386.055,437.362,401.369,418.472,401.369z"/>
<path style="fill:#D5DCED;" d="M127.733,341.511c-47.227,0-85.511-38.285-85.511-85.511v-85.511c0-9.446-7.656-17.102-17.102-17.102  l0,0c-9.446,0-17.102,7.656-17.102,17.102v196.676c0,18.891,15.314,34.205,34.205,34.205h376.251  c18.891,0,34.205-15.314,34.205-34.205v-25.653H127.733z"/>
<g>
	<path style="fill:#FFFFFF;" d="M397.094,170.488h8.551c7.084,0,12.827-5.743,12.827-12.827l0,0c0-7.084-5.743-12.827-12.827-12.827   h-8.551c-7.084,0-12.827,5.743-12.827,12.827l0,0C384.267,164.745,390.01,170.488,397.094,170.488z"/>
	<path style="fill:#FFFFFF;" d="M294.48,170.488h59.858c7.084,0,12.827-5.743,12.827-12.827l0,0c0-7.084-5.743-12.827-12.827-12.827   H294.48c-7.084,0-12.827,5.743-12.827,12.827l0,0C281.653,164.745,287.397,170.488,294.48,170.488z"/>
</g>
<path style="fill:#B4E66E;" d="M305.226,238.898h-74.879l34.947-146.778c1.49-6.257-6.896-9.819-10.364-4.401L146.624,256.945  c-4.472,6.987,0.546,16.157,8.842,16.157h74.88L195.399,419.88c-1.49,6.257,6.896,9.819,10.364,4.401l108.305-169.226  C318.541,248.068,313.523,238.898,305.226,238.898z"/>
<path style="fill:#A0D755;" d="M200.559,256c-6.139,0-10.278-6.277-7.86-11.919l68.074-158.84c-2.091-0.42-4.391,0.207-5.844,2.477  L146.624,256.945c-4.472,6.987,0.546,16.157,8.843,16.157h74.879L195.399,419.88c-0.866,3.636,1.619,6.296,4.52,6.877  l68.074-158.839c2.418-5.643-1.721-11.919-7.86-11.919L200.559,256L200.559,256z"/>
<path d="M161.941,393.353H42.221c-14.44,0-26.188-11.748-26.188-26.188v-222.33c0-14.44,11.748-26.188,26.188-26.188h153.921  c4.427,0,8.017-3.589,8.017-8.017s-3.589-8.017-8.017-8.017H42.221C18.941,102.614,0,121.554,0,144.835v222.33  c0,23.28,18.941,42.221,42.221,42.221h119.719c4.427,0,8.017-3.589,8.017-8.017C169.957,396.942,166.369,393.353,161.941,393.353z"/>
<path d="M478.33,162.472h-17.637v-17.637c0-23.281-18.941-42.221-42.221-42.221H298.756c-4.427,0-8.017,3.589-8.017,8.017  s3.589,8.017,8.017,8.017h119.716c14.44,0,26.188,11.748,26.188,26.188v42.749c0,4.427,3.589,8.017,8.017,8.017  c4.427,0,8.017-3.589,8.017-8.017v-9.079h17.637c9.725,0,17.637,7.912,17.637,17.637v119.716c0,9.725-7.912,17.637-17.637,17.637  h-17.637V221.795c0-4.427-3.589-8.017-8.017-8.017c-4.427,0-8.017,3.589-8.017,8.017v145.37c0,14.44-11.748,26.188-26.188,26.188  H264.551c-4.427,0-8.017,3.589-8.017,8.017c0,4.427,3.589,8.017,8.017,8.017h153.921c23.28,0,42.221-18.941,42.221-42.221v-17.637  h17.637c18.566,0,33.67-15.105,33.67-33.67V196.142C512,177.576,496.895,162.472,478.33,162.472z"/>
<path d="M321.469,240.507c-3.25-5.938-9.474-9.626-16.242-9.626h-64.73l32.596-136.905c1.582-6.642-1.703-13.145-7.988-15.814  c-6.283-2.67-13.246-0.516-16.927,5.234L139.872,252.623c-3.649,5.701-3.897,12.931-0.648,18.869  c3.251,5.938,9.474,9.626,16.242,9.626h64.73L187.6,418.024c-1.582,6.642,1.703,13.145,7.988,15.814  c1.805,0.766,3.666,1.136,5.49,1.136c4.524,0,8.814-2.271,11.437-6.371L320.82,259.378  C324.469,253.675,324.718,246.445,321.469,240.507z M307.317,250.733L206.352,408.49l31.793-133.531  c0.569-2.386,0.013-4.901-1.507-6.826c-1.52-1.925-3.838-3.047-6.292-3.047h-74.879c-1.279,0-1.913-0.808-2.177-1.29  c-0.264-0.482-0.603-1.452,0.087-2.529l100.964-157.757l-31.793,133.532c-0.569,2.386-0.013,4.901,1.507,6.826  c1.52,1.925,3.838,3.047,6.292,3.047h74.879c1.279,0,1.913,0.808,2.177,1.29C307.667,248.686,308.006,249.656,307.317,250.733z"/>
<g>
</g>
<g>
</g>
<g>
</g>
<g>
</g>
<g>
</g>
<g>
</g>
<g>
</g>
<g>
</g>
<g>
</g>
<g>
</g>
<g>
</g>
<g>
</g>
<g>
</g>
<g>
</g>
<g>
</g>
</svg>
