<svg xmlns="http://www.w3.org/2000/svg" viewBox="0 0 64 64"><g id="_13-light_bulbs" data-name="13-light bulbs"><path d="M44.493,42.86a.685.685,0,0,0-.127.113l-.164-.2-24.4.452a25.63,25.63,0,0,1-10.95-18.8C8.578,9.43,18.728,1.241,31.425,1S54.57,8.578,54.848,23.575A25.662,25.662,0,0,1,44.493,42.86Z" style="fill:#b4d3e0"/><path d="M19.806,43.228l24.4-.452.164.2A3.906,3.906,0,0,0,43.012,45.5l-.662,5.313s.01.5-1.231,1.023S37.388,52.9,32.389,53c-5.309.1-7.809-.415-8.988-.923-1.039-.451-1.047-.891-1.047-.891L21.5,45.9a3.952,3.952,0,0,0-1.578-2.581A1.094,1.094,0,0,1,19.806,43.228Z" style="fill:#a4c9d6"/><path d="M32.461,50c-5.621.1-8.267-.407-9.515-.914a1.987,1.987,0,0,1-1.054-.742l.462,2.843s.008.44,1.047.891c1.179.508,3.679,1.022,8.988.923,5-.092,7.49-.639,8.73-1.162s1.231-1.023,1.231-1.023l.314-2.521a3.516,3.516,0,0,1-.96.533C40.39,49.347,37.753,49.9,32.461,50Z" style="fill:#8dbbc9"/><path d="M31.425,1C18.95,1.237,8.942,9.15,8.858,23.649c.3,6.52,8.371,11.625,18.2,11.443l10-.185c9.827-.182,17.7-5.584,17.762-12.11C54.2,8.311,43.9.774,31.425,1Z" style="fill:#d9e6ec"/><path d="M32.463,57c4.97-.092,9-.167,8.962-2.167l.026,1.44a3.693,3.693,0,0,1-2.966,3.466,4.785,4.785,0,0,1-1.207.172l-9.518.176a4.767,4.767,0,0,1-1.213-.127A3.694,3.694,0,0,1,23.455,56.6l-.027-1.44C23.465,57.163,27.494,57.088,32.463,57Z" style="fill:#77848c"/><path d="M37.278,59.907a4.785,4.785,0,0,0,1.207-.172l.033.149.019,1a2.007,2.007,0,0,1-1.963,2.037l-8,.148a2.006,2.006,0,0,1-2.036-1.963l-.019-1,.027-.15a4.767,4.767,0,0,0,1.213.127Z" style="fill:#2e3b41"/><path d="M23.4,52.073c1.179.508,3.679,1.022,8.988.923,5-.092,7.49-.639,8.73-1.162l.25,0,.056,3c.037,2-3.992,2.075-8.962,2.167s-9,.167-9.035-1.833l-.056-3Z" style="fill:#a2adb3"/><path d="M38.518,59.884l-.033-.149a4.785,4.785,0,0,1-1.207.172l-9.518.176a4.767,4.767,0,0,1-1.213-.127l-.027.15.019,1a1.975,1.975,0,0,0,.255.921,2,2,0,0,1,1.741-1.108l8-.148a2,2,0,0,1,1.781,1.042,1.972,1.972,0,0,0,.222-.929Z" style="fill:#222c30"/><path d="M27.483,58.088l-.021-1.1c-2.414-.129-4.011-.567-4.034-1.822l.027,1.44a3.694,3.694,0,0,0,3.092,3.353,4.767,4.767,0,0,0,1.213.127l1.76-.032A2,2,0,0,1,27.483,58.088Z" style="fill:#9ea9af"/><path d="M37.461,56.8l.02,1.1a2,2,0,0,1-1.962,2.037l1.759-.033a4.785,4.785,0,0,0,1.207-.172,3.693,3.693,0,0,0,2.966-3.466l-.026-1.44C41.448,56.084,39.868,56.581,37.461,56.8Z" style="fill:#9ea9af"/><path d="M27.462,56.985l-.076-4.116a13.312,13.312,0,0,1-3.985-.8l-.029.09.056,3C23.451,56.418,25.048,56.856,27.462,56.985Z" style="fill:#bec5cd"/><path d="M41.119,51.834a14.414,14.414,0,0,1-3.735.848l.077,4.117c2.407-.218,3.987-.715,3.964-1.97l-.056-3Z" style="fill:#bec5cd"/><path d="M37.481,57.9l-.016-.857,0-.247c-.615.056-1.288.093-2,.121l0,.163.053,2.857A2,2,0,0,0,37.481,57.9Z" style="fill:#bec5cd"/><path d="M35.463,56.92c.71-.028,1.383-.065,2-.121h0l-.077-4.117h0c-.592.073-1.255.136-2,.188Z" style="fill:#dce4ed"/><path d="M40.465,56.99l-.016-.837c-.032.016-.059.034-.093.049l-.015.006a4.785,4.785,0,0,1-.515.186c-.055.017-.114.031-.172.047-.145.04-.3.077-.456.111l-.208.042c-.17.032-.348.061-.531.087l.006.346.05,2.7a4.413,4.413,0,0,0,1.722-.9,1.991,1.991,0,0,0,.244-.976Z" style="fill:#bec5cd"/><path d="M40.069,52.187c-.121.032-.247.065-.381.1l-.027.006c-.372.089-.8.173-1.279.251l.077,4.14c.183-.026.361-.055.531-.087l.208-.042c.16-.034.311-.071.456-.111.058-.016.117-.03.172-.047a4.785,4.785,0,0,0,.515-.186l.015-.006c.035-.015.06-.035.093-.052L40.374,52.1c-.074.023-.152.045-.232.067Z" style="fill:#dce4ed"/><path d="M35.463,56.92c-.638.025-1.3.042-2,.056l0,.144.053,2.857,2-.037-.053-2.857Z" style="fill:#9ea9af"/><path d="M35.463,56.92l-.076-4.05c-.612.042-1.274.077-2,.1l.074,4.006C34.158,56.962,34.825,56.945,35.463,56.92Z" style="fill:#bec5cd"/><path d="M11.852,23.084c.287-2.592,2.374-16.958,13.454-18.941A2,2,0,0,1,27.335,7.01c-2.221,4.994-6.4,14.971-7.449,21.543a1.9,1.9,0,0,1-2.917,1.392c-1.934-1.282-4.332-3.357-5.068-6.092A2.052,2.052,0,0,1,11.852,23.084Z" style="fill:#f1f9ff"/><path d="M11.852,23.084c.287-2.592,2.374-16.958,13.454-18.941A2,2,0,0,1,27.335,7.01c-2.221,4.994-6.4,14.971-7.449,21.543a1.9,1.9,0,0,1-2.917,1.392c-1.934-1.282-4.332-3.357-5.068-6.092A2.052,2.052,0,0,1,11.852,23.084Z" style="fill:#f1f9ff"/><path d="M55.848,23.557c-.137-7.384-2.691-13.513-7.386-17.724A24.6,24.6,0,0,0,31.407.005C17.054.271,7.59,10.093,7.855,24.446c.009.475.345,11.714,11.478,19.682a2.959,2.959,0,0,1,1.178,1.929l.848,5.236a1.828,1.828,0,0,0,1.022,1.381l.047,2.508h0l.027,1.444a4.559,4.559,0,0,0,3.075,4.051l.009.448a3,3,0,0,0,3,2.943h.057l8-.147a3,3,0,0,0,2.945-3.056l-.009-.453a4.559,4.559,0,0,0,2.924-4.157l-.074-3.968a1.927,1.927,0,0,0,.969-1.383L44,45.621a2.963,2.963,0,0,1,1.106-1.97C55.938,35.275,55.856,24.031,55.848,23.557ZM37.537,60.9a1,1,0,0,1-.982,1.019l-8,.147a1.068,1.068,0,0,1-.713-.279.99.99,0,0,1-.3-.7v-.014c.042,0,.081.011.124.011h.112l9.527-.177c.081,0,.156-.02.235-.025Zm-.273-2-9.527.177A3.326,3.326,0,0,1,24.746,57.6a19.991,19.991,0,0,0,4.905.429c.9,0,1.849-.017,2.837-.035,3.132-.058,5.894-.11,7.706-.674A3.353,3.353,0,0,1,37.264,58.907Zm6.985-17.132-4.065.075.037,2,2.282-.042a4.98,4.98,0,0,0-.486,1.567l-.641,5.17c-.269.237-1.878,1.319-9,1.451l.037,2a33.96,33.96,0,0,0,7.985-.868l.032,1.72h0c.018,1-4.985,1.092-7.98,1.148s-8,.148-8.017-.851L24.4,53.431a17.288,17.288,0,0,0,1.865.326l.246-1.985c-2.3-.285-3.015-.748-3.189-.892l-.832-5.144a4.994,4.994,0,0,0-.545-1.548l16.28-.3-.037-2-1.953.036.4-15.01,4.272-.079a6,6,0,0,0,4.052-10.319A6,6,0,0,0,34.8,20.9l-.109,4.048-5.634.1-.256-4a5.963,5.963,0,0,0-1.836-4.21,6.056,6.056,0,0,0-4.274-1.679,6,6,0,0,0,.222,12l4.271-.08.96,14.985-8.018.148A24.887,24.887,0,0,1,9.855,24.409c-.247-13.362,8.227-22.156,21.589-22.4A22.593,22.593,0,0,1,47.127,7.322c4.27,3.831,6.595,9.457,6.721,16.27A24.89,24.89,0,0,1,44.249,41.775ZM29.181,27.051l5.452-.1-.4,15.01-4.089.076Zm7.507-2.139.107-4a4,4,0,0,1,3.925-4.073H40.8a4,4,0,0,1,.073,8Zm-9.636.178-4.18.078a3.926,3.926,0,0,1-2.85-1.119,4,4,0,0,1,2.7-6.88H22.8a4,4,0,0,1,4,3.972Z"/><path d="M28.331,53.937c.618.035,1.3.058,2.045.067l.025-2c-.715-.009-1.366-.03-1.957-.064Z"/><path d="M31.856,5,31.5,5l.037,2A17.012,17.012,0,0,1,48.849,23.686l2-.037A19.023,19.023,0,0,0,31.856,5Z"/><rect x="48.904" y="25.667" width="2" height="2" transform="translate(-0.486 0.931) rotate(-1.063)"/></g></svg>