<?xml version="1.0" encoding="UTF-8"?>
<!-- Uploaded to: SVG Find, www.svgfind.com, Generator: SVG Find Mixer Tools -->
<svg fill="#000000" width="800px" height="800px" version="1.1" viewBox="144 144 512 512" xmlns="http://www.w3.org/2000/svg">
 <g>
  <path d="m459.81 322.2c-30.301 0-71.469-7.8438-100.76-43.758-40.738-50.02-25.551-115.16-24.902-117.68 0.59375-2.7109 2.6914-4.8398 5.3984-5.4688 2.6406-0.65625 5.4258 0.23438 7.1953 2.3008 15.547 18.211 43.184 22.961 69.668 27.566 26.484 4.6055 53.906 9.3555 67.582 28.789 24.398 34.258 21.594 94.5 21.594 97.02-0.14453 3.1328-2.2969 5.8086-5.3242 6.6211-13.254 3.1289-26.832 4.6758-40.449 4.6055zm38.363-11.586m-151.94-133.73c-2.0156 20.152-2.0156 60.387 24.039 92.34 38.219 47 102.27 38.938 120.84 35.41 0-15.113-1.2969-57.578-18.855-82.48-10.293-14.395-33.609-18.426-58.297-22.742-23.105-3.8125-48.801-8.1328-67.73-22.527z"/>
  <path d="m505.44 323.2h-6.0469 0.003906c-3.1055-0.17188-5.7461-2.3203-6.5508-5.3242-0.79297-2.8086-17.707-69.023 30.012-107.96 38.289-31.164 87.949-19.578 90.039-19.074 2.6367 0.63281 4.6953 2.6914 5.3242 5.3281 0.64062 2.6562-0.28125 5.4414-2.375 7.1953-13.242 11.301-16.699 31.668-20.152 51.387-3.6719 21.23-7.1992 41.242-22.168 51.965-20.941 14.828-54.34 16.484-68.086 16.484zm82.914-120.48c-20.348-0.55469-40.27 5.8984-56.426 18.281-33.395 27.133-28.789 72.406-26.27 87.734 12.309 0 42.176-1.4414 59.523-13.891 10.219-7.1992 13.172-24.473 16.336-42.68 2.8789-16.555 6.0469-34.906 15.547-49.086-2.7383-0.21875-5.543-0.35938-8.7109-0.35938z"/>
  <path d="m514.29 485.93c-1.8984-0.027344-3.7109-0.80078-5.0391-2.1602l-157.69-157.62-157.7 157.62c-1.2227 1.7852-3.1797 2.9258-5.3359 3.1055-2.1562 0.17969-4.2773-0.61719-5.7812-2.1758-1.5-1.5547-2.2227-3.707-1.9648-5.8555 0.25781-2.1445 1.4688-4.0625 3.2969-5.2227l162.37-162.73c1.3516-1.3594 3.1914-2.1289 5.1133-2.1289 1.918 0 3.7578 0.76953 5.1094 2.1289l162.73 162.73c2.0742 2.0625 2.6992 5.1719 1.5781 7.8711-1.1211 2.7031-3.7656 4.4531-6.6875 4.4375z"/>
  <path d="m352.5 644.71c-34.18 0.097657-67.125-12.762-92.195-35.988-28.883-26.512-45.305-63.93-45.273-103.14v-12.738c-0.011719-1.9141 0.74219-3.7539 2.0898-5.1094l129.55-129.55c1.3516-1.3633 3.1914-2.1289 5.1094-2.1289 1.918 0 3.7578 0.76562 5.1094 2.1289l129.55 129.55c1.375 1.3438 2.1523 3.1875 2.1602 5.1094v74.637c27.043-30.297 43.668-68.461 47.43-108.89 7.918-83.922-38.938-160.79-119.62-195.84-3.6602-1.5898-5.3359-5.8438-3.7461-9.5 1.5898-3.6562 5.8438-5.332 9.5039-3.7422 86.367 37.57 136.75 120.2 128.18 210.45-4.582 47.055-25.297 91.074-58.629 124.6-33.328 33.531-77.23 54.5-124.25 59.359h-2.9492c-4.0352 0.79297-7.7031 0.79297-12.023 0.79297zm-123.07-148.91v9.7891c0.058594 35.094 14.777 68.57 40.594 92.34 25.238 23.453 59.254 35.07 93.566 31.957h2.7344c40.16-3.9609 77.996-20.684 107.96-47.719v-86.367l-122.36-122.36z"/>
  <path d="m409.64 519.62h-43.832c-3.9766 0-7.1992-3.2227-7.1992-7.1953v-43.832c0-3.9766 3.2227-7.1992 7.1992-7.1992h43.832c1.9062 0 3.7383 0.75781 5.0859 2.1094 1.3516 1.3477 2.1094 3.1797 2.1094 5.0898v43.832c0 3.9727-3.2227 7.1953-7.1953 7.1953zm-36.633-14.395h29.438l-0.003907-29.438h-29.438z"/>
  <path d="m337.24 519.62h-43.758c-3.9766 0-7.1992-3.2227-7.1992-7.1953v-43.832c0-3.9766 3.2227-7.1992 7.1992-7.1992h43.758c1.9102 0 3.7383 0.75781 5.0898 2.1094 1.3477 1.3477 2.1055 3.1797 2.1055 5.0898v43.832c0 3.9727-3.2188 7.1953-7.1953 7.1953zm-36.562-14.395h29.363v-29.438h-29.363z"/>
  <path d="m337.24 591.95h-43.758c-3.9766 0-7.1992-3.2227-7.1992-7.1953v-43.762c0-3.9727 3.2227-7.1953 7.1992-7.1953h43.758c1.9102 0 3.7383 0.75781 5.0898 2.1055 1.3477 1.3516 2.1055 3.1836 2.1055 5.0898v43.762c0 1.9062-0.75781 3.7383-2.1055 5.0898-1.3516 1.3477-3.1797 2.1055-5.0898 2.1055zm-36.562-14.395h29.363v-29.363h-29.363z"/>
  <path d="m409.64 591.95h-43.832c-3.9766 0-7.1992-3.2227-7.1992-7.1953v-43.762c0-3.9727 3.2227-7.1953 7.1992-7.1953h43.832c1.9062 0 3.7383 0.75781 5.0859 2.1055 1.3516 1.3516 2.1094 3.1836 2.1094 5.0898v43.762c0 1.9062-0.75781 3.7383-2.1094 5.0898-1.3477 1.3477-3.1797 2.1055-5.0859 2.1055zm-36.633-14.395h29.438l-0.003907-29.363h-29.438z"/>
 </g>
</svg>