<?xml version="1.0" encoding="UTF-8"?>
<!-- Uploaded to: SVG Find, www.svgfind.com, Generator: SVG Find Mixer Tools -->
<svg fill="#000000" width="800px" height="800px" version="1.1" viewBox="144 144 512 512" xmlns="http://www.w3.org/2000/svg">
 <path d="m559.69 316.28c14.508-0.003906 26.258-11.754 26.262-26.262v-0.33594c0-8.8047-4.4141-17.027-11.758-21.895l-137.07-90.812c-0.039062-0.023437-0.089844-0.035156-0.13281-0.058593-0.19141-0.12109-0.38672-0.22266-0.58594-0.32812-0.21094-0.10938-0.42188-0.21094-0.64453-0.29688-0.17578-0.070313-0.34766-0.13672-0.52734-0.19531-0.085937-0.023437-0.17188-0.050781-0.26172-0.070312-0.20703-0.054688-0.40625-0.10547-0.62109-0.14453-0.24219-0.046874-0.48047-0.074218-0.72656-0.097656-0.19531-0.015625-0.38672-0.039062-0.58594-0.046875-0.035156 0-0.066406-0.015625-0.097656-0.015625h-58.168c-0.03125 0-0.058594 0.015625-0.097657 0.015625-0.17578 0-0.35156 0.023438-0.52734 0.039063-0.24609 0.019531-0.48438 0.050781-0.72656 0.097656-0.19531 0.035156-0.38672 0.070312-0.57812 0.12109-0.089844 0.023437-0.17578 0.050781-0.26172 0.074218-0.19531 0.058594-0.38281 0.13281-0.57031 0.20703-0.22266 0.085937-0.43359 0.17969-0.64844 0.29297-0.15625 0.082032-0.3125 0.15234-0.46484 0.24219-0.03125 0.015625-0.066407 0.023438-0.089844 0.039062l-144.29 89.055c-7.75 4.7852-12.469 13.238-12.469 22.348v1.7617c0.003906 14.508 11.754 26.258 26.262 26.262h90.367l-6.4219 23.562-99.828 77.285 0.003907 0.003906c-6.5352 4.9688-10.383 12.695-10.383 20.906v4.6953c0.003906 14.508 11.754 26.258 26.262 26.262h48.734l-39.734 145.74c-1.0977 4.0273 1.2734 8.1836 5.3047 9.2812 4.0273 1.0977 8.1836-1.2734 9.2812-5.3047l10.469-38.391 127.71-60.977 125.8 60.375 8.6641 33.449c1.0469 4.0391 5.168 6.4688 9.2109 5.4219 4.0391-1.0469 6.4688-5.168 5.4219-9.2109l-9.125-35.223c-0.054688-1.0273-0.3125-2.0234-0.76562-2.9492l-26.484-102.21h44.895c14.508-0.003906 26.258-11.754 26.262-26.262 0-7.6328-3.3203-14.895-9.1055-19.879l0.023438 0.023437-95.625-83.359-6.0195-23.242zm-170.43 75.938-77.898 52.367 24.199-88.762zm-33.246-40.793h93.93l-47.156 31.699zm46.738 49.938 77.484 52.516-155.61 0.003906zm69.672 67.633-70.344 33.582-69.973-33.582zm-56.148-76.727 53.672-36.078 22.773 87.895zm-75.395-55.957 5.4609-20.035h113.26l5.1875 20.035zm62.918-125.82-14.23-19.66h28.535zm25.848-9.8359 18.383 70.945-34.91-48.234zm-35.203 22.691-36.41 50.043 19.875-72.895zm9.3203 12.879 46.996 64.938h-94.238zm167.07 53.449v0.33594c-0.011719 6.1562-4.9922 11.141-11.148 11.148l-88.387 0.003907-26.094-100.7 120.63 79.918c3.1211 2.0664 4.9961 5.5586 4.9961 9.2969zm-330.52 11.488c-6.1562-0.011719-11.141-4.9922-11.148-11.148v-1.7617c0-3.8633 2.0039-7.457 5.2969-9.4883l127.99-78.996-27.645 101.4zm0 152.71c-6.1562-0.011718-11.141-4.9922-11.148-11.148l-0.003906-4.6992c0-3.5 1.6406-6.7969 4.4375-8.9023l0.074219-0.058593 83.977-65.008-24.484 89.812zm39.297 107.18 24.227-88.871 80.742 38.754zm139.97-50.086 80.516-38.441 22.812 88.035zm147.39-76.684c2.4531 2.1172 3.8633 5.1992 3.8633 8.4375-0.011719 6.1562-4.9922 11.141-11.148 11.148h-48.809l-22.922-88.465 78.992 68.852z"/>
</svg>