<?xml version="1.0" encoding="UTF-8"?>
<!-- Uploaded to: SVG Find, www.svgfind.com, Generator: SVG Find Mixer Tools -->
<svg fill="#000000" width="800px" height="800px" version="1.1" viewBox="144 144 512 512" xmlns="http://www.w3.org/2000/svg">
 <path d="m459.69 265.03h25.211c0.98828 10.504 5.1094 20.711 12.141 29.199l-17.859 17.859c-1.9688 1.9688-1.9688 5.1602 0 7.125 1.9688 1.9688 5.1602 1.9688 7.125 0l17.828-17.828c8.6055 7.1289 18.832 11.16 29.227 12.133v25.195c0 2.7812 2.2578 5.0391 5.0391 5.0391s5.0391-2.2578 5.0391-5.0391l-0.003906-25.215c10.504-0.98828 20.711-5.1094 29.199-12.141l17.859 17.859c1.9688 1.9688 5.1602 1.9688 7.125 0 1.9688-1.9688 1.9688-5.1602 0-7.125l-17.828-17.828c7.1289-8.6055 11.16-18.832 12.133-29.227h25.195c2.7812 0 5.0391-2.2578 5.0391-5.0391s-2.2578-5.0391-5.0391-5.0391h-25.211c-0.98828-10.504-5.1094-20.711-12.141-29.199l17.859-17.859c1.9688-1.9688 1.9688-5.1602 0-7.125-1.9688-1.9648-5.1602-1.9688-7.125 0l-17.828 17.828c-8.6055-7.1289-18.832-11.16-29.227-12.133v-25.195c0-2.7812-2.2578-5.0391-5.0391-5.0391s-5.0391 2.2578-5.0391 5.0391v25.211c-10.504 0.98828-20.711 5.1094-29.199 12.141l-17.859-17.859c-1.9688-1.9688-5.1602-1.9688-7.125 0s-1.9688 5.1602 0 7.125l17.828 17.828c-7.1289 8.6055-11.16 18.832-12.133 29.227h-25.195c-2.7812 0-5.0391 2.2578-5.0391 5.0391 0.003906 2.7852 2.2617 5.043 5.043 5.043zm40.062-5.0586c0-1.6758 0.14453-3.3516 0.36328-5.0195 0.85156-6.543 3.3789-12.902 7.6562-18.469 0.42969-0.55859 0.83594-1.125 1.3047-1.668 0.64453-0.75391 1.3438-1.4297 2.0352-2.1211 1.2031-1.2031 2.4531-2.3359 3.7734-3.3516 5.4805-4.2188 11.863-6.7656 18.484-7.6367 1.6719-0.21484 3.3516-0.36719 5.0391-0.36719h0.019532c1.6758 0 3.3516 0.14453 5.0195 0.36328 6.543 0.85156 12.902 3.3789 18.469 7.6562 0.55859 0.42969 1.125 0.83594 1.668 1.3047 0.75391 0.64453 1.4297 1.3438 2.1211 2.0352 1.2031 1.2031 2.3359 2.4531 3.3516 3.7734 4.2188 5.4805 6.7656 11.863 7.6367 18.484 0.22266 1.6719 0.36719 3.3516 0.36719 5.0391v0.019531c0 1.6758-0.14453 3.3516-0.36328 5.0195-0.85156 6.543-3.3789 12.902-7.6562 18.469-0.42969 0.55859-0.83594 1.125-1.3047 1.668-0.64453 0.75391-1.3438 1.4297-2.0352 2.1211-1.2031 1.2031-2.4531 2.3359-3.7734 3.3516-5.4805 4.2188-11.863 6.7656-18.484 7.6367-1.6719 0.22266-3.3516 0.36719-5.0391 0.36719h-0.019531c-1.6758 0-3.3516-0.14453-5.0195-0.36328-6.543-0.85156-12.902-3.3789-18.469-7.6562-0.55859-0.42969-1.125-0.83594-1.668-1.3047-0.75391-0.64453-1.4297-1.3438-2.1211-2.0352-1.2031-1.2031-2.3359-2.4531-3.3516-3.7734-4.2188-5.4805-6.7656-11.863-7.6367-18.484-0.21484-1.6719-0.36719-3.3516-0.36719-5.0391v-0.019531zm124.24 321.52-80.816-214.75c-4.1953-11.148-14.863-18.535-26.777-18.535h-301.62c-8.1211-0.011719-15.402 3.3789-20.477 8.6211-5.0898 5.2344-8.1523 12.344-8.1562 19.965 0 3.3438 0.59766 6.7695 1.8555 10.102l29.684 78.883-42.562 112.02c-0.88281 2.3125-0.5625 4.9375 0.83984 6.9766 1.4062 2.0391 3.7422 3.2656 6.2227 3.2656h81.516l5.125 13.613c4.1953 11.148 14.863 18.535 26.777 18.535h301.62c8.1211 0.011718 15.402-3.3789 20.477-8.6211 5.0898-5.2344 8.1523-12.344 8.1562-19.965-0.007813-3.3438-0.60938-6.7773-1.8633-10.105zm-17.133 19.527c-2.4492 2.4883-5.707 4.0352-9.6445 4.0508h-301.61c-5.6172 0-10.656-3.4805-12.629-8.7461l-3.1172-8.2891-5.6953-15.117-40.309-107.11-8.0391-21.383-23.652-62.855c-0.61328-1.6328-0.88281-3.2227-0.88281-4.7773-0.003906-3.5234 1.4414-6.9258 3.875-9.4258 2.4492-2.4883 5.707-4.0352 9.6445-4.0508h301.62c5.6172 0 10.656 3.4805 12.629 8.7422l80.82 214.75c0.61328 1.6328 0.88281 3.2227 0.88281 4.7773-0.011719 3.5352-1.457 6.9414-3.8906 9.4375zm-413.72-28.098 32.594-85.766 32.273 85.762zm325.97-182.18c-1.4727-3.9141-5.2188-6.5039-9.4023-6.5039h-277.23c-7.0195 0-11.871 7.0117-9.4023 13.578l10.168 27.02 8.0391 21.383 47.688 126.71 1.7773 4.7305c0.39844 1.0547 0.97656 1.9883 1.668 2.8281 1.875 2.2734 4.6758 3.6797 7.7266 3.6797h277.23c7.0195 0 11.871-7.0117 9.4023-13.578zm-84.652 178.3h-130.79l-54.266-144.19-8.0391-21.383-1.5586-4.1367h19.301l160.23 0.003906h86.863l63.863 169.7-135.61-0.003906zm47.375-159.95c-1.0391-2.5781-3.9766-3.8281-6.5547-2.793-2.5781 1.0391-3.8281 3.9766-2.793 6.5547 0.003907 0.015625 2.5859 6.418 6.7305 16.707 0.91797 2.2734 1.9258 4.7812 2.9766 7.4023h-52.391c-1.0117-2.4922-1.9883-4.8984-2.9023-7.1289-3.5664-8.7617-6.2422-15.32-7.5586-18.539-0.57812-1.4141-0.90625-2.2266-0.90625-2.2266-1.0547-2.5742-3.9961-3.8086-6.5703-2.7539-2.5742 1.0547-3.8086 3.9961-2.7539 6.5703 0.003907 0.015625 2.5938 6.3477 6.7422 16.531 0.94141 2.3125 1.9844 4.875 3.0742 7.5586l-50.988-0.007812c-6.3945-16.539-10.758-27.805-10.758-27.809-1.0039-2.5938-3.9258-3.8828-6.5195-2.8828-2.5938 1.0039-3.8828 3.9258-2.8828 6.5195 0.003906 0.015625 2.4727 6.3867 6.4336 16.629 0.89062 2.3086 1.8828 4.8672 2.918 7.543h-51.547c-6.8672-16.617-11.617-27.93-11.621-27.941-1.0781-2.5625-4.0312-3.7734-6.5938-2.6953s-3.7734 4.0312-2.6953 6.5938c0.003907 0.015625 2.6562 6.3281 6.8789 16.488 0.95703 2.3086 2.0195 4.875 3.1328 7.5508h-23.145c-2.7812 0-5.0391 2.2578-5.0391 5.0391s2.2578 5.0391 5.0391 5.0391h27.305c6.7148 16.289 14.922 36.371 22.672 55.797h-22.711c-2.7812 0-5.0391 2.2578-5.0391 5.0391s2.2578 5.0391 5.0391 5.0391h26.707c6.5859 16.668 12.539 32.18 16.48 43.387 0.92188 2.625 3.7969 4.0039 6.4219 3.082s4.0039-3.7969 3.082-6.4219c-3.7188-10.57-9.125-24.723-15.148-40.043h50.109c6.5156 16.902 12.555 32.621 16.863 43.898 0.99219 2.6016 3.9062 3.8984 6.5039 2.9062 2.6016-0.99219 3.8984-3.9062 2.9062-6.5039-4.0039-10.484-9.4961-24.777-15.477-40.305h52.359c6.6719 16.652 12.809 32.121 17.109 43.266 1.0039 2.5938 3.918 3.8906 6.5156 2.8867 2.5938-1.0039 3.8906-3.918 2.8867-6.5156-4-10.363-9.5586-24.395-15.652-39.641h52.273c6.9023 17.191 13.324 33.195 17.898 44.652 1.0312 2.5859 3.9648 3.8438 6.5508 2.8125 2.5859-1.0312 3.8438-3.9648 2.8125-6.5508-4.2461-10.629-10.07-25.156-16.398-40.914h14.012c2.7812 0 5.0391-2.2578 5.0391-5.0391s-2.2578-5.0391-5.0391-5.0391h-18.055c-7.6797-19.113-15.738-39.152-22.441-55.797h13.23c2.7812 0 5.0391-2.2578 5.0391-5.0391s-2.2578-5.0391-5.0391-5.0391h-17.285c-6.6875-16.578-11.238-27.867-11.238-27.867zm-149.47 93.742c-5.0078-12.594-10.27-25.598-15.234-37.781-2.5703-6.293-5.0469-12.344-7.3867-18.016h51.293c6.3008 16.305 14.055 36.375 21.543 55.797zm102.1 0h-41.082c-7.3594-19.094-15.105-39.141-21.539-55.797h51.188c1.25 3.0742 2.5352 6.2422 3.8789 9.5586 2.4141 5.9453 4.9492 12.207 7.5586 18.656 3.6562 9.0391 7.4258 18.391 11.117 27.578h-11.121zm74.238 0h-52.266c-7.4414-18.539-15.324-38.027-21.977-54.41-0.19141-0.46875-0.37109-0.91797-0.5625-1.3867h52.363c6.5508 16.285 14.625 36.352 22.441 55.797z"/>
</svg>