<?xml version="1.0" encoding="UTF-8"?>
<!-- Uploaded to: SVG Find, www.svgfind.com, Generator: SVG Find Mixer Tools -->
<svg fill="#000000" width="800px" height="800px" version="1.1" viewBox="144 144 512 512" xmlns="http://www.w3.org/2000/svg">
 <g>
  <path d="m519.76 644.71h-239.53c-8.2148-0.019531-16.086-3.2969-21.887-9.1133-5.8008-5.8125-9.0586-13.695-9.0586-21.906v-388.22c0-8.2148 3.2578-16.094 9.0586-21.91 5.8008-5.8164 13.672-9.0898 21.887-9.1094h239.53c8.2812-0.078124 16.254 3.1523 22.145 8.9766 5.8945 5.8242 9.2148 13.758 9.2344 22.043v388.22c-0.019531 8.2812-3.3398 16.215-9.2344 22.039-5.8906 5.8242-13.863 9.0547-22.145 8.9805zm-239.53-435.87c-4.3945 0.019531-8.6055 1.7773-11.707 4.8945-3.1055 3.1133-4.8438 7.332-4.8438 11.73v388.22c0 4.3945 1.7383 8.6133 4.8438 11.73 3.1016 3.1133 7.3125 4.875 11.707 4.8945h239.53c4.4648 0.074219 8.7773-1.6406 11.969-4.7617 3.1914-3.125 4.9961-7.3984 5.0156-11.863v-388.22c-0.019532-4.4023-1.7773-8.6211-4.8906-11.734s-7.332-4.8711-11.734-4.8906z"/>
  <path d="m458.37 208.84h-116.74c-3.9766 0-7.1992-3.2227-7.1992-7.1992v-39.152c0-3.9766 3.2227-7.1953 7.1992-7.1953h116.74c1.9102 0 3.7422 0.75781 5.0898 2.1055 1.3516 1.3516 2.1094 3.1797 2.1094 5.0898v39.152c0 3.9766-3.2227 7.1992-7.1992 7.1992zm-109.54-14.395h102.35v-24.758h-102.35z"/>
  <path d="m515.16 615.92h-229.95c-3.9766 0-7.1992-3.2227-7.1992-7.1992v-53.836c0-3.9727 3.2227-7.1953 7.1992-7.1953h229.95c1.9062 0 3.7383 0.75781 5.0898 2.1055 1.3477 1.3516 2.1055 3.1836 2.1055 5.0898v53.836c0 1.9102-0.75781 3.7422-2.1055 5.0898-1.3516 1.3516-3.1836 2.1094-5.0898 2.1094zm-222.39-14.395h215.2v-39.441h-215.56z"/>
  <path d="m434.76 404.89c-13.641-0.375-26.957-4.2656-38.648-11.301-2.0195-1.293-3.2617-3.5078-3.3125-5.9023 1.0117-20.387 8.875-39.836 22.312-55.203 26.629-32.172 84.352-19.359 86.801-18.785h-0.003906c1.8633 0.42969 3.4805 1.5781 4.4922 3.1992 1.0117 1.6211 1.3398 3.5781 0.90625 5.4375-0.50391 2.2305-13.098 53.906-42.824 73.699-8.8008 5.8516-19.152 8.9336-29.723 8.8555zm-27.566-21.449c8.4922 4.2461 30.516 12.957 49.012 0.57422 18.496-12.379 30.371-43.184 34.691-57.578-15.043-2.0859-48.871-4.2461-64.777 15.258h0.003906c-10.23 11.781-16.809 26.289-18.93 41.746z"/>
  <path d="m377.33 401.73c-7.3008 0.085938-14.453-2.0469-20.512-6.1172-19.863-13.242-28.141-47.285-28.789-48.727-0.45312-1.8672-0.14453-3.8359 0.86328-5.4688 1.0156-1.6445 2.6484-2.8125 4.5312-3.2383 1.6562-0.35938 40.09-8.9258 58.227 12.957v-0.003906c9.2773 10.207 14.766 23.293 15.547 37.066-0.050781 2.3945-1.293 4.6094-3.3086 5.9023-8.0312 4.8281-17.191 7.4609-26.559 7.6289zm-32.746-50.383c3.5977 10.508 10.508 26.055 20.297 32.605h-0.003906c8.4961 4.5547 18.711 4.5547 27.207 0-1.5742-8.6953-5.4219-16.816-11.156-23.535-8.1328-9.8594-25.117-10.797-36.348-9.3555z"/>
  <path d="m515.16 529.55h-229.95c-3.9766 0-7.1992-3.2227-7.1992-7.1992v-53.617c0-3.9766 3.2227-7.1992 7.1992-7.1992h71.973c3.9727 0 7.1953 3.2227 7.1953 7.1992 0 3.9727-3.2227 7.1953-7.1953 7.1953h-64.777v39.227h215.56v-39.227h-67.941c-12.504-0.019532-24.492-4.9883-33.34-13.824-8.8477-8.8359-13.836-20.812-13.875-33.316v-41.242c0-3.9727 3.2227-7.1953 7.1992-7.1953 3.9727 0 7.1953 3.2227 7.1953 7.1953v41.242c0.019532 8.6953 3.4844 17.035 9.6328 23.184 6.1523 6.1523 14.488 9.6172 23.188 9.6328h75.141c1.9062 0 3.7383 0.76172 5.0898 2.1094 1.3477 1.3516 2.1055 3.1797 2.1055 5.0898v53.547c0 1.9102-0.75781 3.7383-2.1055 5.0898-1.3516 1.3516-3.1836 2.1094-5.0898 2.1094z"/>
 </g>
</svg>