<?xml version="1.0" encoding="UTF-8" standalone="no"?>
<svg
   xmlns:dc="http://purl.org/dc/elements/1.1/"
   xmlns:cc="http://creativecommons.org/ns#"
   xmlns:rdf="http://www.w3.org/1999/02/22-rdf-syntax-ns#"
   xmlns:svg="http://www.w3.org/2000/svg"
   xmlns="http://www.w3.org/2000/svg"
   width="100%"
   height="100%"
   viewBox="0 0 64 64"
   version="1.1"
   xml:space="preserve"
   style="fill-rule:evenodd;clip-rule:evenodd;stroke-linecap:round;stroke-linejoin:round;stroke-miterlimit:2;"
   id="svg25">
  <metadata
   id="metadata31">
    <rdf:RDF>
      <cc:Work
   rdf:about="">
        <dc:format>image/svg+xml</dc:format>

        <dc:type
   rdf:resource="http://purl.org/dc/dcmitype/StillImage" />

      </cc:Work>

    </rdf:RDF>

  </metadata>

  <defs
   id="defs29" />

  
  <path
   d="M47,37.881l0,-6.381"
   style="fill:none;stroke:#222a33;stroke-width:1.5px;"
   id="path3" />

  <path
   d="M51,43l0,-22.593c0,-0.876 -0.449,-1.691 -1.19,-2.158c-3.301,-2.085 -12.574,-7.942 -16.265,-10.273c-0.944,-0.596 -2.146,-0.596 -3.09,0c-3.691,2.331 -12.964,8.188 -16.265,10.273c-0.741,0.467 -1.19,1.282 -1.19,2.158c0,2.675 0,8.603 0,12.839c0,1.26 0.501,2.47 1.393,3.361c0.891,0.892 2.101,1.393 3.361,1.393l4.746,0"
   style="fill:none;stroke:#222a33;stroke-width:1.5px;"
   id="path5" />

  <path
   d="M28,38l5,0c1.657,0 3,1.343 3,3c0,1.657 -1.343,3 -3,3c-4.247,0 -11.996,0 -16.5,0c-0.928,0 -1.818,0.369 -2.475,1.025c-0.656,0.657 -1.025,1.547 -1.025,2.475c0,0.928 0.369,1.819 1.025,2.475c0.657,0.656 1.547,1.025 2.475,1.025c6.879,0 21.5,0 21.5,0"
   style="fill:none;stroke:#222a33;stroke-width:1.5px;"
   id="path7" />

  <path
   d="M26.5,10.474l-16,10.105"
   style="fill:none;stroke:#222a33;stroke-width:1.5px;"
   id="path9" />

  <path
   d="M37.5,10.474l16,10.105"
   style="fill:none;stroke:#222a33;stroke-width:1.5px;"
   id="path11" />

  <path
   d="M36,20.5c0,-2.209 -1.791,-4 -4,-4c-2.209,0 -4,1.791 -4,4c0,2.205 0,4.5 0,4.5l8,0l0,-4.5Z"
   style="fill:none;stroke:#222a33;stroke-width:1.5px;"
   id="path13" />

  <path
   d="M26,25l12,0"
   style="fill:none;stroke:#222a33;stroke-width:1.5px;"
   id="path15" />

  <path
   d="M47,28l0,-2"
   style="fill:none;stroke:#222a33;stroke-width:1.5px;"
   id="path17" />

  <path
   d="M38,51.001c0,1.305 0.519,2.557 1.442,3.48c0.923,0.924 2.175,1.442 3.48,1.442l2.992,0c0.513,0 1.004,-0.203 1.366,-0.566c0.363,-0.362 0.566,-0.854 0.566,-1.366l0,-5.982c0,-0.512 -0.203,-1.004 -0.566,-1.366c-0.362,-0.363 -0.853,-0.566 -1.366,-0.566l-2.992,0c-1.305,0 -2.557,0.518 -3.48,1.442c-0.923,0.923 -1.442,2.175 -1.442,3.48l0,0.002Z"
   style="fill:none;stroke:#222a33;stroke-width:1.5px;"
   id="path19" />

  <path
   d="M54,54.709l-2.462,0"
   style="fill:none;stroke:#222a33;stroke-width:1.5px;"
   id="path21" />

  <path
   d="M54,47.308l-6.154,0"
   style="fill:none;stroke:#222a33;stroke-width:1.5px;"
   id="path23" />

</svg>
