<?xml version="1.0" encoding="UTF-8" standalone="no"?>
<svg
   xmlns:dc="http://purl.org/dc/elements/1.1/"
   xmlns:cc="http://creativecommons.org/ns#"
   xmlns:rdf="http://www.w3.org/1999/02/22-rdf-syntax-ns#"
   xmlns:svg="http://www.w3.org/2000/svg"
   xmlns="http://www.w3.org/2000/svg"
   width="100%"
   height="100%"
   viewBox="0 0 64 64"
   version="1.1"
   xml:space="preserve"
   style="fill-rule:evenodd;clip-rule:evenodd;stroke-linecap:round;stroke-linejoin:round;stroke-miterlimit:2;"
   id="svg15">
  <metadata
   id="metadata21">
    <rdf:RDF>
      <cc:Work
   rdf:about="">
        <dc:format>image/svg+xml</dc:format>

        <dc:type
   rdf:resource="http://purl.org/dc/dcmitype/StillImage" />

      </cc:Work>

    </rdf:RDF>

  </metadata>

  <defs
   id="defs19" />

  
  <path
   d="M19,17.923c0,-2.167 1.756,-3.923 3.923,-3.923c0.143,0 0.283,0 0.418,0c0.44,0 0.862,-0.175 1.173,-0.486c0.311,-0.311 0.486,-0.733 0.486,-1.173l0,-1.755c0,-1.428 1.158,-2.586 2.586,-2.586c2.515,0 6.313,0 8.828,0c1.428,0 2.586,1.158 2.586,2.586c0,0.595 0,1.212 0,1.755c0,0.44 0.175,0.862 0.486,1.173c0.311,0.311 0.733,0.486 1.173,0.486l0.418,0c2.167,0 3.923,1.756 3.923,3.923c0,7.79 0,25.175 0,33.483c0,2.537 -2.057,4.594 -4.594,4.594c-4.421,0 -11.237,0 -16.812,0c-2.537,0 -4.594,-2.057 -4.594,-4.594c0,-8.308 0,-25.693 0,-33.483Z"
   style="fill:none;stroke:#222a33;stroke-width:1.5px;"
   id="path3" />

  <path
   d="M41,37l0,-16.303c0,-0.715 -0.284,-1.401 -0.79,-1.907c-0.506,-0.506 -1.192,-0.79 -1.907,-0.79c-3.399,0 -9.207,0 -12.606,0c-0.715,0 -1.401,0.284 -1.907,0.79c-0.506,0.506 -0.79,1.192 -0.79,1.907c0,6.261 0,21.744 0,28.297c0,1.66 1.346,3.006 3.006,3.006c3.328,0 8.66,0 11.988,0c1.66,0 3.006,-1.346 3.006,-3.006c0,-2.617 0,-5.994 0,-5.994l-2,0"
   style="fill:none;stroke:#222a33;stroke-width:1.5px;"
   id="path5" />

  <path
   d="M33.746,45c0.658,-0.499 1.298,-1.202 1.865,-2.185c2.71,-4.694 0.619,-10.307 0.619,-10.307c0,0 -6.397,1.844 -8.617,5.689c-1.346,2.332 -0.721,4.645 -0.02,6.105c0.166,0.336 0.504,0.554 0.878,0.566c0.375,0.012 0.726,-0.183 0.913,-0.508c0.913,-1.577 2.228,-3.854 2.228,-3.854"
   style="fill:none;stroke:#222a33;stroke-width:1.5px;"
   id="path7" />

  <path
   d="M27.093,43l-4.093,0"
   style="fill:none;stroke:#222a33;stroke-width:1.5px;"
   id="path9" />

  <path
   d="M23,29l18,0"
   style="fill:none;stroke:#222a33;stroke-width:1.5px;"
   id="path11" />

  <path
   d="M41,14l-5,0"
   style="fill:none;stroke:#222a33;stroke-width:1.5px;"
   id="path13" />

</svg>
