<?xml version="1.0" encoding="UTF-8" standalone="no"?>
<svg
   xmlns:dc="http://purl.org/dc/elements/1.1/"
   xmlns:cc="http://creativecommons.org/ns#"
   xmlns:rdf="http://www.w3.org/1999/02/22-rdf-syntax-ns#"
   xmlns:svg="http://www.w3.org/2000/svg"
   xmlns="http://www.w3.org/2000/svg"
   width="100%"
   height="100%"
   viewBox="0 0 64 64"
   version="1.1"
   xml:space="preserve"
   style="fill-rule:evenodd;clip-rule:evenodd;stroke-linecap:round;stroke-linejoin:round;stroke-miterlimit:2;"
   id="svg13">
  <metadata
   id="metadata19">
    <rdf:RDF>
      <cc:Work
   rdf:about="">
        <dc:format>image/svg+xml</dc:format>

        <dc:type
   rdf:resource="http://purl.org/dc/dcmitype/StillImage" />

      </cc:Work>

    </rdf:RDF>

  </metadata>

  <defs
   id="defs17" />

  
  <path
   d="M32,48c-8.831,0 -16,-7.169 -16,-16c0,-8.831 7.169,-16 16,-16c8.831,0 16,7.169 16,16c0,5.495 -2.776,10.346 -7,13.227"
   style="fill:none;stroke:#222a33;stroke-width:1.5px;"
   id="path3" />

  <path
   d="M55,41l0,-28.136c0,-1.025 -0.407,-2.007 -1.132,-2.732c-0.724,-0.725 -1.707,-1.132 -2.732,-1.132c-8.672,0 -29.6,0 -38.272,0c-2.134,0 -3.864,1.73 -3.864,3.864l0,38.272c0,2.134 1.73,3.864 3.864,3.864l38.272,0c2.134,0 3.864,-1.73 3.864,-3.864c0,-2.441 0,-5.136 0,-5.136"
   style="fill:none;stroke:#222a33;stroke-width:1.5px;"
   id="path5" />

  <path
   d="M51,23l0,-7.353c0,-1.462 -1.185,-2.647 -2.647,-2.647c-2.159,0 -4.853,0 -4.853,0"
   style="fill:none;stroke:#222a33;stroke-width:1.5px;"
   id="path7" />

  <circle
   cx="26"
   cy="32.298"
   r="3"
   style="fill:none;stroke:#222a33;stroke-width:1.5px;"
   id="circle9" />

  <circle
   cx="38"
   cy="32"
   r="3"
   style="fill:none;stroke:#222a33;stroke-width:1.5px;"
   id="circle11" />

</svg>
