<?xml version="1.0" encoding="utf-8"?>
<!-- Generator: Adobe Illustrator 16.0.0, SVG Export Plug-In . SVG Version: 6.00 Build 0)  -->
<!DOCTYPE svg PUBLIC "-//W3C//DTD SVG 1.1//EN" "http://www.w3.org/Graphics/SVG/1.1/DTD/svg11.dtd">
<svg version="1.1" id="Layer_1" xmlns="http://www.w3.org/2000/svg" xmlns:xlink="http://www.w3.org/1999/xlink" x="0px" y="0px"
	 width="128px" height="128px" viewBox="0 0 128 128" enable-background="new 0 0 128 128" xml:space="preserve">
<g>
	<g>
		<g>
			<g>
				<path fill="#282D33" d="M73.268,91.218H51.485c-8.042,0-14.585-6.593-14.585-14.696V68.6h4v7.922
					c0,5.898,4.749,10.696,10.585,10.696h21.783c5.836,0,10.584-4.798,10.584-10.696V68.6h4v7.922
					C87.852,84.625,81.31,91.218,73.268,91.218z"/>
			</g>
			<g>
				<path fill="#282D33" d="M90.45,62.407H34.298c-1.104,0-2-0.896-2-2v-9.769c0-1.104,0.896-2,2-2H90.45c1.104,0,2,0.896,2,2v9.769
					C92.45,61.512,91.555,62.407,90.45,62.407z M36.298,58.407H88.45v-5.769H36.298V58.407z"/>
			</g>
			<g>
				<g>
					<rect x="47.708" y="28.824" fill="#282D33" width="4" height="21.415"/>
				</g>
				<g>
					<rect x="73.045" y="28.824" fill="#282D33" width="4" height="21.415"/>
				</g>
			</g>
			<g>
				<rect x="49.48" y="72.309" fill="#282D33" width="25.788" height="4"/>
			</g>
		</g>
		<g>
			<path fill="#282D33" d="M64.002,128c-34.99,0-63.457-28.71-63.457-64c0-35.29,28.467-64,63.457-64
				c34.988,0,63.453,28.71,63.453,64c0,22.343-11.261,42.705-30.121,54.469l-2.117-3.395c17.682-11.027,28.238-30.121,28.238-51.074
				c0-33.084-26.671-60-59.453-60C31.217,4,4.545,30.916,4.545,64s26.672,60,59.457,60V128z"/>
		</g>
		<g>
			<path fill="#282D33" d="M86.432,121.295h-3.888c-12.532,0-22.728-10.387-22.728-23.154V87.234h4v10.906
				c0,10.562,8.401,19.154,18.728,19.154h3.888c4.173,0,8.118-1.371,11.409-3.965l2.477,3.141
				C96.313,119.627,91.513,121.295,86.432,121.295z"/>
		</g>
	</g>
</g>
</svg>
