<?xml version="1.0" encoding="utf-8"?>
<!-- Generator: Adobe Illustrator 16.0.0, SVG Export Plug-In . SVG Version: 6.00 Build 0)  -->
<!DOCTYPE svg PUBLIC "-//W3C//DTD SVG 1.1//EN" "http://www.w3.org/Graphics/SVG/1.1/DTD/svg11.dtd">
<svg version="1.1" id="Layer_1" xmlns="http://www.w3.org/2000/svg" xmlns:xlink="http://www.w3.org/1999/xlink" x="0px" y="0px"
	 width="128px" height="128px" viewBox="0 0 128 128" enable-background="new 0 0 128 128" xml:space="preserve">
<g>
	<g>
		<g>
			<g>
				<rect x="75.794" y="27.351" fill="#282D33" width="4" height="27.301"/>
			</g>
			<g>
				<rect x="48.016" y="27.351" fill="#282D33" width="4" height="27.301"/>
			</g>
		</g>
		<g>
			<path fill="#282D33" d="M92.504,124.254H35.305l13.019-77.57h31.163L92.504,124.254z M40.033,120.254h47.745l-11.676-69.57
				H51.708L40.033,120.254z"/>
		</g>
		<g>
			<polygon fill="#282D33" points="33.702,26.869 31.618,23.455 63.904,3.746 96.188,23.455 94.104,26.869 63.904,8.433 			"/>
		</g>
		<g>
			<polygon fill="#282D33" points="33.702,50.188 31.618,46.773 63.904,27.064 96.188,46.773 94.104,50.188 63.904,31.751 			"/>
		</g>
		<g>
			<g>
				
					<rect x="45.015" y="62.08" transform="matrix(0.7277 0.6858 -0.6858 0.7277 61.9775 -27.97)" fill="#282D33" width="42.407" height="4"/>
			</g>
			<g>
				
					<rect x="59.589" y="42.876" transform="matrix(0.6859 0.7277 -0.7277 0.6859 65.9733 -24.6904)" fill="#282D33" width="3.999" height="42.407"/>
			</g>
		</g>
		<g>
			<g>
				
					<rect x="36.395" y="98.011" transform="matrix(0.7115 0.7027 -0.7027 0.7115 89.3827 -17.6781)" fill="#282D33" width="59.649" height="4"/>
			</g>
			<g>
				
					<rect x="59.589" y="70.187" transform="matrix(0.7027 0.7115 -0.7115 0.7027 89.4673 -14.0862)" fill="#282D33" width="4" height="59.649"/>
			</g>
		</g>
		<g>
			<rect x="45.558" y="77.905" fill="#282D33" width="37.807" height="4"/>
		</g>
		<g>
			<polygon fill="#282D33" points="98.852,32.408 94.852,32.408 94.852,27.505 29.308,27.505 29.308,32.408 25.308,32.408 
				25.308,23.505 98.852,23.505 			"/>
		</g>
		<g>
			<polygon fill="#282D33" points="98.852,55.273 94.852,55.273 94.852,50.37 29.308,50.37 29.308,55.273 25.308,55.273 
				25.308,46.37 98.852,46.37 			"/>
		</g>
		<g>
			<rect y="120.254" fill="#282D33" width="29.016" height="4"/>
		</g>
		<g>
			<rect x="98.986" y="120.254" fill="#282D33" width="29.014" height="4"/>
		</g>
	</g>
</g>
</svg>
