<?xml version="1.0" encoding="utf-8"?>
<!-- Generator: Adobe Illustrator 16.0.0, SVG Export Plug-In . SVG Version: 6.00 Build 0)  -->
<!DOCTYPE svg PUBLIC "-//W3C//DTD SVG 1.1//EN" "http://www.w3.org/Graphics/SVG/1.1/DTD/svg11.dtd">
<svg version="1.1" id="Layer_1" xmlns="http://www.w3.org/2000/svg" xmlns:xlink="http://www.w3.org/1999/xlink" x="0px" y="0px"
	 width="128px" height="128px" viewBox="0 0 128 128" enable-background="new 0 0 128 128" xml:space="preserve">
<g>
	<g>
		<g>
			
				<rect x="37.05" y="8.767" transform="matrix(0.3042 0.9526 -0.9526 0.3042 42.295 -36.3328)" fill="#282D33" width="17.936" height="4.036"/>
		</g>
		<g>
			
				<rect x="13.003" y="24.933" transform="matrix(0.739 0.6737 -0.6737 0.739 23.8846 -7.7548)" fill="#282D33" width="17.896" height="4.036"/>
		</g>
		<g>
			
				<rect x="0.225" y="51.024" transform="matrix(0.9772 0.2123 -0.2123 0.9772 11.472 -0.7342)" fill="#282D33" width="17.858" height="4.037"/>
		</g>
		<g>
			
				<rect x="9.033" y="73.142" transform="matrix(0.3072 0.9517 -0.9517 0.3072 85.7612 46.3452)" fill="#282D33" width="4.036" height="17.861"/>
		</g>
		<g>
			
				<rect x="25.121" y="97.305" transform="matrix(0.7423 0.6701 -0.6701 0.7423 78.1944 9.1984)" fill="#282D33" width="4.036" height="17.909"/>
		</g>
		<g>
			
				<rect x="73.017" y="115.197" transform="matrix(0.3039 0.9527 -0.9527 0.3039 168.7346 3.4827)" fill="#282D33" width="17.934" height="4.036"/>
		</g>
		<g>
			
				<rect x="97.103" y="99.03" transform="matrix(0.739 0.6737 -0.6737 0.739 95.7523 -45.0721)" fill="#282D33" width="17.894" height="4.036"/>
		</g>
		<g>
			
				<rect x="109.918" y="72.94" transform="matrix(0.9771 0.2127 -0.2127 0.9771 18.6612 -23.5618)" fill="#282D33" width="17.857" height="4.034"/>
		</g>
		<g>
			
				<rect x="114.932" y="36.995" transform="matrix(0.3066 0.9519 -0.9519 0.3066 124.8111 -79.473)" fill="#282D33" width="4.036" height="17.859"/>
		</g>
		<g>
			
				<rect x="98.843" y="12.787" transform="matrix(0.7422 0.6702 -0.6702 0.7422 40.5737 -61.9937)" fill="#282D33" width="4.037" height="17.903"/>
		</g>
	</g>
	<g>
		<path fill="#282D33" d="M63.999,103.793c-21.84,0-39.609-17.853-39.609-39.797c0-21.943,17.769-39.795,39.609-39.795
			c21.841,0,39.609,17.852,39.609,39.795C103.608,85.94,85.84,103.793,63.999,103.793z M63.999,28.238
			c-19.615,0-35.573,16.041-35.573,35.758c0,19.719,15.958,35.761,35.573,35.761c19.615,0,35.573-16.042,35.573-35.761
			C99.572,44.279,83.614,28.238,63.999,28.238z"/>
	</g>
	<g>
		<path fill="#282D33" d="M45.855,125.109l14.147-46.678H27.901L82.144,4.874l-14.146,46.68h32.101L45.855,125.109z M35.893,74.396
			h29.551l-8.929,29.457L92.107,55.59h-29.55l8.928-29.46L35.893,74.396z"/>
	</g>
</g>
</svg>
