<?xml version="1.0" encoding="utf-8"?>
<!-- Generator: Adobe Illustrator 16.0.0, SVG Export Plug-In . SVG Version: 6.00 Build 0)  -->
<!DOCTYPE svg PUBLIC "-//W3C//DTD SVG 1.1//EN" "http://www.w3.org/Graphics/SVG/1.1/DTD/svg11.dtd">
<svg version="1.1" id="Layer_1" xmlns="http://www.w3.org/2000/svg" xmlns:xlink="http://www.w3.org/1999/xlink" x="0px" y="0px"
	 width="128px" height="128px" viewBox="0 0 128 128" enable-background="new 0 0 128 128" xml:space="preserve">
<g>
	<g>
		<g>
			
				<rect x="90.772" y="12.245" transform="matrix(0.9777 0.2102 -0.2102 0.9777 5.8925 -19.094)" fill="#282D33" width="4.014" height="11.862"/>
		</g>
		<g>
			
				<rect x="67.766" y="17.43" transform="matrix(0.3041 0.9526 -0.9526 0.3041 69.8006 -56.6798)" fill="#282D33" width="11.862" height="4.016"/>
		</g>
		<g>
			
				<rect x="51.887" y="28.122" transform="matrix(0.7387 0.674 -0.674 0.7387 35.4091 -31.0861)" fill="#282D33" width="11.829" height="4.015"/>
		</g>
		<g>
			
				<rect x="43.449" y="45.378" transform="matrix(0.9771 0.2126 -0.2126 0.9771 11.2036 -9.4088)" fill="#282D33" width="11.795" height="4.015"/>
		</g>
		<g>
			
				<rect x="107.442" y="77.124" transform="matrix(0.7385 0.6742 -0.6742 0.7385 82.996 -55.7363)" fill="#282D33" width="11.824" height="4.015"/>
		</g>
		<g>
			
				<rect x="115.911" y="59.867" transform="matrix(0.9771 0.2128 -0.2128 0.9771 15.96 -24.5076)" fill="#282D33" width="11.797" height="4.016"/>
		</g>
		<g>
			
				<rect x="118.546" y="36.776" transform="matrix(0.3072 0.9517 -0.9517 0.3072 124.1369 -85.1573)" fill="#282D33" width="4.015" height="11.801"/>
		</g>
		<g>
			
				<rect x="107.921" y="20.764" transform="matrix(0.7429 0.6694 -0.6694 0.7429 46.1254 -66.7281)" fill="#282D33" width="4.015" height="11.834"/>
		</g>
	</g>
	<g>
		<path fill="#282D33" d="M104.206,74.055l-2.796-2.882c4.507-4.369,6.987-10.245,6.987-16.544
			c0-12.669-10.237-22.976-22.821-22.976c-11.852,0-21.848,9.307-22.756,21.188l-4.003-0.306
			c1.068-13.962,12.822-24.898,26.76-24.898c14.798,0,26.837,12.108,26.837,26.991C112.413,62.024,109.499,68.923,104.206,74.055z"
			/>
	</g>
	<g>
		<g>
			<rect x="46.713" y="102.793" fill="#282D33" width="4.015" height="11.244"/>
		</g>
		<g>
			<rect x="60.783" y="102.793" fill="#282D33" width="4.015" height="11.244"/>
		</g>
		<g>
			<rect x="38.374" y="112.029" fill="#282D33" width="34.763" height="4.016"/>
		</g>
		<g>
			<g>
				<path fill="#282D33" d="M111.511,104.593H0l20.829-46.54H90.68L111.511,104.593z M6.196,100.578h99.119l-17.237-38.51H23.43
					L6.196,100.578z"/>
			</g>
			<g>
				<rect x="10.005" y="83.276" fill="#282D33" width="91.25" height="4.016"/>
			</g>
			<g>
				<rect x="16.769" y="69.873" fill="#282D33" width="78.589" height="4.016"/>
			</g>
			<g>
				<path fill="#282D33" d="M23.514,102.532l-3.854-1.125c4.095-14.022,8.189-28.045,12.277-42.065l3.854,1.123
					C31.703,74.485,27.608,88.511,23.514,102.532z"/>
			</g>
			<g>
				
					<rect x="39.885" y="59.685" transform="matrix(0.9897 0.143 -0.143 0.9897 12.0048 -5.1589)" fill="#282D33" width="4.015" height="42.503"/>
			</g>
			<g>
				<path fill="#282D33" d="M54.125,101.977c-0.048-14.022-0.095-28.046-0.139-42.066l4.015-0.013
					c0.044,14.02,0.091,28.043,0.139,42.065L54.125,101.977z"/>
			</g>
			<g>
				<path fill="#282D33" d="M71.419,102.27c-2.116-14.022-4.229-28.047-6.34-42.067l3.971-0.598
					c2.11,14.021,4.223,28.044,6.339,42.065L71.419,102.27z"/>
			</g>
			<g>
				
					<rect x="62.449" y="78.929" transform="matrix(0.2859 0.9583 -0.9583 0.2859 137.824 -23.0805)" fill="#282D33" width="43.898" height="4.015"/>
			</g>
		</g>
	</g>
</g>
</svg>
